<?xml version="1.0" encoding="UTF-8"?>
<svg version="1.1" xmlns="http://www.w3.org/2000/svg" width="84" height="121">
<path d="M0 0 C8.94428987 -0.58051881 17.29836524 1.18625975 26 3 C26.495 4.485 26.495 4.485 27 6 C21.555 5.505 21.555 5.505 16 5 C16.495 5.845625 16.99 6.69125 17.5 7.5625 C19.17902815 11.41027285 19.38472988 13.84491725 19 18 C18.4740625 19.0209375 18.4740625 19.0209375 17.9375 20.0625 C16.5747087 22.87893536 17.42430604 24.99359822 18 28 C17.505 29.485 17.505 29.485 17 31 C17.99 31 18.98 31 20 31 C20.268125 30.236875 20.53625 29.47375 20.8125 28.6875 C21.94424112 26.12619116 22.91223401 24.80307062 25 23 C26.0779189 26.23375669 25.88618349 28.0156399 25.625 31.375 C25.55181102 38.87687048 28.29717792 45.18654835 33 51 C36.09148991 52.2028117 36.09148991 52.2028117 39 53 C39.73080266 54.97746603 40.39421747 56.98072489 41 59 C43.49373043 61.36362416 43.49373043 61.36362416 46 63 C45.49396008 65.16874252 45.00016187 66.99967627 44 69 C44.85619414 71.54098262 44.85619414 71.54098262 46.203125 74.41796875 C46.68910156 75.50787109 47.17507812 76.59777344 47.67578125 77.72070312 C48.19527344 78.86474609 48.71476562 80.00878906 49.25 81.1875 C50.73791153 84.50771178 52.22554704 87.82798187 53.70581055 91.15161133 C54.4461148 92.78095103 55.20625811 94.40232395 56.02270508 95.99487305 C58.55825314 101.07722492 58.34294109 105.90140569 58.1875 111.4375 C58.16719727 112.82098633 58.16719727 112.82098633 58.14648438 114.23242188 C58.11140953 116.48890383 58.06226387 118.74413226 58 121 C55.36 121 52.72 121 50 121 C47.58847733 115.55949509 45.18601356 110.11511375 42.79174805 104.66699219 C41.97650093 102.81532068 41.15881693 100.96472004 40.33862305 99.11523438 C39.15807453 96.45202001 37.98643012 93.7850394 36.81640625 91.1171875 C36.44971329 90.29507782 36.08302032 89.47296814 35.70521545 88.62594604 C33.86689674 84.41013883 32.4973588 80.62251122 32 76 C30.35 76 28.7 76 27 76 C27 73.69 27 71.38 27 69 C24.525 69.495 24.525 69.495 22 70 C21.82984375 71.22332031 21.6596875 72.44664063 21.484375 73.70703125 C20.10235884 83.38695522 18.5344407 92.94836823 16.27050781 102.46606445 C15.12430602 107.50387828 14.05965862 112.85418939 15 118 C15.99 118.99 16.98 119.98 18 121 C13.71 121 9.42 121 5 121 C5.0928125 117.90625 5.0928125 117.90625 5.1875 114.75 C5.1955607 106.81020714 4.4929608 98.7394412 0 92 C0.495 90.515 0.495 90.515 1 89 C1.66 89.99 2.32 90.98 3 92 C2.84402344 91.17757812 2.68804688 90.35515625 2.52734375 89.5078125 C1.28670516 82.39262695 0.80793478 76.13628235 2 69 C-0.31 69 -2.62 69 -5 69 C-4.814375 69.639375 -4.62875 70.27875 -4.4375 70.9375 C-4.293125 71.618125 -4.14875 72.29875 -4 73 C-5 74 -5 74 -7.5625 74.0625 C-8.366875 74.041875 -9.17125 74.02125 -10 74 C-10 74.66 -10 75.32 -10 76 C-13.465 76.99 -13.465 76.99 -17 78 C-17.185625 76.948125 -17.37125 75.89625 -17.5625 74.8125 C-18.8720195 70.04002892 -21.90732121 68.50108148 -26 66 C-23.2794075 62.42922234 -21.02326926 59.95521091 -17.1875 57.625 C-10.64818339 52.86686868 -5.95224889 43.83252445 -4.65625 35.89453125 C-4.35175249 31.89800138 -4.55264564 27.97648319 -5 24 C-2.19152945 26.22471317 0.52972106 28.39970638 3 31 C2.938125 29.88625 2.87625 28.7725 2.8125 27.625 C2.9053125 25.830625 2.9053125 25.830625 3 24 C3.99 23.34 4.98 22.68 6 22 C5.525625 21.505 5.05125 21.01 4.5625 20.5 C2.45765671 17.13225074 1.69022574 13.97815369 2 10 C3.9375 7.5 3.9375 7.5 6 6 C3.69 5.01 1.38 4.02 -1 3 C-0.67 2.01 -0.34 1.02 0 0 Z M8 24 C9 26 9 26 9 26 Z M12 24 C12.66 24.66 13.32 25.32 14 26 C14.33 25.34 14.66 24.68 15 24 C14.01 24 13.02 24 12 24 Z M10 68 C10.00523682 68.56509277 10.01047363 69.13018555 10.01586914 69.71240234 C10.03662422 72.2665903 10.0496554 74.82076053 10.0625 77.375 C10.07087891 78.26445313 10.07925781 79.15390625 10.08789062 80.0703125 C10.09111328 80.92109375 10.09433594 81.771875 10.09765625 82.6484375 C10.10289307 83.43395996 10.10812988 84.21948242 10.11352539 85.02880859 C10 87 10 87 9 89 C8.915085 90.8863912 8.892807 92.77578515 8.90234375 94.6640625 C8.90556641 95.78554687 8.90878906 96.90703125 8.91210938 98.0625 C8.92048828 99.238125 8.92886719 100.41375 8.9375 101.625 C8.94201172 102.80835938 8.94652344 103.99171875 8.95117188 105.2109375 C8.96298533 108.14067507 8.97945742 111.07031272 9 114 C9.99 113.505 9.99 113.505 11 113 C11.06058594 111.78183594 11.12117188 110.56367187 11.18359375 109.30859375 C11.26806403 107.68488723 11.35270872 106.06118978 11.4375 104.4375 C11.47681641 103.63763672 11.51613281 102.83777344 11.55664062 102.01367188 C11.7443679 98.47573484 11.9895696 95.06374134 12.5625 91.5625 C13.14255019 86.83923418 12.85928562 82.30083588 12.5625 77.5625 C12.51029297 76.64017578 12.45808594 75.71785156 12.40429688 74.76757812 C12.27569984 72.51128464 12.1407929 70.25555971 12 68 C11.34 68 10.68 68 10 68 Z " fill="#373D47" transform="translate(26,0)"/>
<path d="M0 0 C2 2 2 2 2.6875 5 C3.120625 5.99 3.55375 6.98 4 8 C6.31029085 8.74259349 8.645752 9.411438 11 10 C12.93034078 12.3324951 13.0253155 13.49368992 12.875 16.5 C11.81875978 19.51782919 10.31037131 20.82965119 8 23 C6.36530967 25.69723904 6 26.78120986 6 30 C8.27502981 28.04997445 9.12320361 26.70665806 10.3125 23.875 C12 21 12 21 15.1875 20.125 C16.115625 20.08375 17.04375 20.0425 18 20 C18.495 22.97 18.495 22.97 19 26 C17.02 26.66 15.04 27.32 13 28 C12.16046733 31.19904988 12.16046733 31.19904988 13 35 C16.04772092 37.80637285 19.45179662 39.88225341 23 42 C23.99 42.66 24.98 43.32 26 44 C26.80583081 55.48675197 23.68504799 66.93536475 21 78 C20.27533764 81.2470448 19.81861739 84.2970564 19.75 87.625 C19.71132812 88.75808594 19.71132812 88.75808594 19.671875 89.9140625 C19.86102618 92.44966445 19.86102618 92.44966445 23 95 C18.71 95 14.42 95 10 95 C10.0928125 91.90625 10.0928125 91.90625 10.1875 88.75 C10.1955607 80.81020714 9.4929608 72.7394412 5 66 C5.495 64.515 5.495 64.515 6 63 C6.99 64.485 6.99 64.485 8 66 C7.84402344 65.17757812 7.68804688 64.35515625 7.52734375 63.5078125 C6.28670516 56.39262695 5.80793478 50.13628235 7 43 C4.69 43 2.38 43 0 43 C0.185625 43.639375 0.37125 44.27875 0.5625 44.9375 C0.706875 45.618125 0.85125 46.29875 1 47 C0 48 0 48 -2.5625 48.0625 C-3.366875 48.041875 -4.17125 48.02125 -5 48 C-5 48.66 -5 49.32 -5 50 C-7.31 50.66 -9.62 51.32 -12 52 C-12.2784375 50.4221875 -12.2784375 50.4221875 -12.5625 48.8125 C-13.8720195 44.04002892 -16.90732121 42.50108148 -21 40 C-18.2794075 36.42922234 -16.02326926 33.95521091 -12.1875 31.625 C-5.9033695 27.07648649 -2.32936675 19.24807422 0 12 C0.55510717 7.88006401 0.56102916 4.11421382 0 0 Z M15 42 C15.00523682 42.56509277 15.01047363 43.13018555 15.01586914 43.71240234 C15.03662422 46.2665903 15.0496554 48.82076053 15.0625 51.375 C15.07087891 52.26445313 15.07925781 53.15390625 15.08789062 54.0703125 C15.09111328 54.92109375 15.09433594 55.771875 15.09765625 56.6484375 C15.10289307 57.43395996 15.10812988 58.21948242 15.11352539 59.02880859 C15 61 15 61 14 63 C13.915085 64.8863912 13.892807 66.77578515 13.90234375 68.6640625 C13.90556641 69.78554687 13.90878906 70.90703125 13.91210938 72.0625 C13.92048828 73.238125 13.92886719 74.41375 13.9375 75.625 C13.94201172 76.80835938 13.94652344 77.99171875 13.95117188 79.2109375 C13.96298533 82.14067507 13.97945742 85.07031272 14 88 C14.99 87.505 14.99 87.505 16 87 C16.06058594 85.78183594 16.12117188 84.56367187 16.18359375 83.30859375 C16.26806403 81.68488723 16.35270872 80.06118978 16.4375 78.4375 C16.47681641 77.63763672 16.51613281 76.83777344 16.55664062 76.01367188 C16.7443679 72.47573484 16.9895696 69.06374134 17.5625 65.5625 C18.14255019 60.83923418 17.85928562 56.30083588 17.5625 51.5625 C17.51029297 50.64017578 17.45808594 49.71785156 17.40429688 48.76757812 C17.27569984 46.51128464 17.1407929 44.25555971 17 42 C16.34 42 15.68 42 15 42 Z " fill="#09141C" transform="translate(21,26)"/>
<path d="M0 0 C0.99 0 1.98 0 3 0 C4.77139515 4.02058605 6.5420154 8.04151291 8.3125 12.0625 C9.06176758 13.7630957 9.06176758 13.7630957 9.82617188 15.49804688 C10.79678111 17.70280825 11.76217706 19.90987326 12.72192383 22.11938477 C13.45154376 23.76385192 14.20321097 25.39984474 15.01831055 27.00366211 C17.55690014 32.08609717 17.3429896 36.89967809 17.1875 42.4375 C17.16719727 43.82098633 17.16719727 43.82098633 17.14648438 45.23242188 C17.11140953 47.48890383 17.06226387 49.74413226 17 52 C14.36 52 11.72 52 9 52 C6.58847733 46.55949509 4.18601356 41.11511375 1.79174805 35.66699219 C0.97650093 33.81532068 0.15881693 31.96472004 -0.66137695 30.11523438 C-1.84192547 27.45202001 -3.01356988 24.7850394 -4.18359375 22.1171875 C-4.55028671 21.29507782 -4.91697968 20.47296814 -5.29478455 19.62594604 C-7.13310326 15.41013883 -8.5026412 11.62251122 -9 7 C-7.88625 6.6596875 -7.88625 6.6596875 -6.75 6.3125 C-3.48900462 4.75611584 -2.21026104 2.79966399 0 0 Z " fill="#FE5F2A" transform="translate(67,69)"/>
<path d="M0 0 C2 2 2 2 2.6875 5 C3.120625 5.99 3.55375 6.98 4 8 C6.31029085 8.74259349 8.645752 9.411438 11 10 C12.93034078 12.3324951 13.0253155 13.49368992 12.875 16.5 C11.81875978 19.51782919 10.31037131 20.82965119 8 23 C6.09526535 25.76186524 5.99659017 26.93862306 6.1875 30.375 C5.93353887 35.28491527 4.46410347 36.61837519 1 40 C0.34 40 -0.32 40 -1 40 C-0.34 42.31 0.32 44.62 1 47 C0 48 0 48 -2.5625 48.0625 C-3.366875 48.041875 -4.17125 48.02125 -5 48 C-5 48.66 -5 49.32 -5 50 C-7.31 50.66 -9.62 51.32 -12 52 C-12.2784375 50.4221875 -12.2784375 50.4221875 -12.5625 48.8125 C-13.8720195 44.04002892 -16.90732121 42.50108148 -21 40 C-18.2794075 36.42922234 -16.02326926 33.95521091 -12.1875 31.625 C-5.9033695 27.07648649 -2.32936675 19.24807422 0 12 C0.55510717 7.88006401 0.56102916 4.11421382 0 0 Z " fill="#0E2126" transform="translate(21,26)"/>
<path d="M0 0 C1.98 0.99 1.98 0.99 4 2 C4 2.66 4 3.32 4 4 C4.99 4 5.98 4 7 4 C7.33 3.34 7.66 2.68 8 2 C8.43570313 2.91523437 8.87140625 3.83046875 9.3203125 4.7734375 C9.92083356 5.97447962 10.52245443 7.17497227 11.125 8.375 C11.70507812 9.55835938 12.28515625 10.74171875 12.8828125 11.9609375 C15.37241787 15.53457768 16.91029909 15.89131206 21 17 C21.73080266 18.97746603 22.39421747 20.98072489 23 23 C25.49373043 25.36362416 25.49373043 25.36362416 28 27 C27.67587628 30.02515469 27.10171348 30.91241339 24.75 32.9375 C23.8425 33.618125 22.935 34.29875 22 35 C21.236875 35.9075 20.47375 36.815 19.6875 37.75 C15.93016989 40.89567172 13.78645684 40.40563194 9 40 C9 37.69 9 35.38 9 33 C7.824375 33.0928125 7.824375 33.0928125 6.625 33.1875 C5.75875 33.125625 4.8925 33.06375 4 33 C1.86168417 29.79252626 1.46552015 27.88370763 0.875 24.125 C0.70742188 23.09632812 0.53984375 22.06765625 0.3671875 21.0078125 C0.03629634 18.29732111 -0.07041464 15.72605266 0 13 C2.475 13.495 2.475 13.495 5 14 C4.35600627 12.04106095 3.70974759 10.08286636 3.0625 8.125 C2.70285156 7.03445312 2.34320313 5.94390625 1.97265625 4.8203125 C1.10085926 2.09241318 1.10085926 2.09241318 0 0 Z " fill="#010101" transform="translate(44,36)"/>
<path d="M0 0 C8.94428987 -0.58051881 17.29836524 1.18625975 26 3 C26.33 3.99 26.66 4.98 27 6 C21.555 5.505 21.555 5.505 16 5 C16.495 5.845625 16.99 6.69125 17.5 7.5625 C19.17902815 11.41027285 19.38472988 13.84491725 19 18 C18.4740625 19.0209375 18.4740625 19.0209375 17.9375 20.0625 C16.72102536 22.05585097 16.72102536 22.05585097 17.625 24.625 C18.18501163 29.66510467 16.08234255 33.4778312 14 38 C12.35 36.35 10.7 34.7 9 33 C8.34 34.32 7.68 35.64 7 37 C6.896875 36.401875 6.79375 35.80375 6.6875 35.1875 C6.18288918 32.9215361 6.18288918 32.9215361 4.4375 31.625 C3 30 3 30 2.625 26.9375 C2.74875 25.968125 2.8725 24.99875 3 24 C3.99 23.34 4.98 22.68 6 22 C5.525625 21.505 5.05125 21.01 4.5625 20.5 C2.45765671 17.13225074 1.69022574 13.97815369 2 10 C3.9375 7.5 3.9375 7.5 6 6 C3.69 5.01 1.38 4.02 -1 3 C-0.67 2.01 -0.34 1.02 0 0 Z M8 24 C9 26 9 26 9 26 Z M12 24 C12.66 24.66 13.32 25.32 14 26 C14.33 25.34 14.66 24.68 15 24 C14.01 24 13.02 24 12 24 Z " fill="#24210F" transform="translate(26,0)"/>
<path d="M0 0 C2.97 1.65 5.94 3.3 9 5 C8.67 5.99 8.34 6.98 8 8 C7.91760831 9.84610532 7.89256641 11.69505164 7.90234375 13.54296875 C7.90556641 14.61611328 7.90878906 15.68925781 7.91210938 16.79492188 C7.92048828 17.91447266 7.92886719 19.03402344 7.9375 20.1875 C7.94201172 21.31865234 7.94652344 22.44980469 7.95117188 23.61523438 C7.96296502 26.41020927 7.9794235 29.2050782 8 32 C8.06058594 30.7934375 8.12117188 29.586875 8.18359375 28.34375 C8.26807818 26.72915876 8.35272211 25.11457586 8.4375 23.5 C8.49647461 22.31277344 8.49647461 22.31277344 8.55664062 21.1015625 C8.68286716 18.73238756 8.83333367 16.36666185 9 14 C9.05115967 13.23743896 9.10231934 12.47487793 9.1550293 11.68920898 C9.3515625 9.52734375 9.3515625 9.52734375 10 6 C12.9375 4.0625 12.9375 4.0625 16 3 C16.66 2.67 17.32 2.34 18 2 C17.83564453 2.804375 17.83564453 2.804375 17.66796875 3.625 C17.32279566 5.33122147 16.98218945 7.03836921 16.64453125 8.74609375 C16.1711805 11.13579785 15.68798285 13.52355693 15.19921875 15.91015625 C13.02732363 26.37220819 13.02732363 26.37220819 13 37 C13.99 37.99 14.98 38.98 16 40 C11.71 40 7.42 40 3 40 C3.061875 37.9375 3.12375 35.875 3.1875 33.75 C3.1955607 25.81020714 2.4929608 17.7394412 -2 11 C-1.67 10.01 -1.34 9.02 -1 8 C-0.01 9.485 -0.01 9.485 1 11 C0.67 7.37 0.34 3.74 0 0 Z " fill="#2A3608" transform="translate(28,81)"/>
<path d="M0 0 C2.36743164 0.06567383 2.36743164 0.06567383 5 1 C6.66577148 3.5534668 6.66577148 3.5534668 8.12109375 6.94921875 C8.38833755 7.55828568 8.65558136 8.1673526 8.93092346 8.7948761 C9.7845561 10.7518123 10.61119193 12.71889284 11.4375 14.6875 C11.9884904 15.96234371 12.54120956 17.23644171 13.09570312 18.50976562 C14.19860096 21.05130719 15.2883079 23.59786817 16.36669922 26.14990234 C17.47720267 28.77728094 18.60468385 31.39636701 19.74658203 34.01025391 C20.02599136 34.65243362 20.3054007 35.29461334 20.59327698 35.95625305 C21.36649594 37.73177525 22.14227805 39.50618059 22.91821289 41.28051758 C24 44 24 44 24 46 C21.69 46 19.38 46 17 46 C14.58847733 40.55949509 12.18601356 35.11511375 9.79174805 29.66699219 C8.97650093 27.81532068 8.15881693 25.96472004 7.33862305 24.11523438 C6.15807453 21.45202001 4.98643012 18.7850394 3.81640625 16.1171875 C3.44971329 15.29507782 3.08302032 14.47296814 2.70521545 13.62594604 C0.87865157 9.43709613 -0.63174393 5.6133674 -1 1 C-0.67 0.67 -0.34 0.34 0 0 Z " fill="#FE5F2A" transform="translate(59,75)"/>
<path d="M0 0 C2.875 2.4375 2.875 2.4375 5 5 C5 5.66 5 6.32 5 7 C5.66 7 6.32 7 7 7 C7.66 8.98 8.32 10.96 9 13 C8 14 8 14 5.4375 14.0625 C4.633125 14.041875 3.82875 14.02125 3 14 C3 14.66 3 15.32 3 16 C0.69 16.66 -1.62 17.32 -4 18 C-4.185625 16.948125 -4.37125 15.89625 -4.5625 14.8125 C-5.8720195 10.04002892 -8.90732121 8.50108148 -13 6 C-6.66882895 -1.83065893 -6.66882895 -1.83065893 0 0 Z " fill="#665E0A" transform="translate(13,60)"/>
<path d="M0 0 C8.94428987 -0.58051881 17.29836524 1.18625975 26 3 C26.33 3.99 26.66 4.98 27 6 C21.555 5.505 21.555 5.505 16 5 C16.495 5.9075 16.99 6.815 17.5 7.75 C19 11 19 11 19 15 C18.01 15 17.02 15 16 15 C15.731875 15.639375 15.46375 16.27875 15.1875 16.9375 C14 19 14 19 11 20 C10.71125 19.195625 10.4225 18.39125 10.125 17.5625 C9.26737432 14.8673532 9.26737432 14.8673532 7 14 C7.66 14 8.32 14 9 14 C9.66 11.03 10.32 8.06 11 5 C9.68 5.33 8.36 5.66 7 6 C4.859375 5.44140625 4.859375 5.44140625 2.75 4.5625 C2.04359375 4.27503906 1.3371875 3.98757812 0.609375 3.69140625 C0.07828125 3.46324219 -0.4528125 3.23507812 -1 3 C-0.67 2.01 -0.34 1.02 0 0 Z " fill="#366D62" transform="translate(26,0)"/>
<path d="M0 0 C0.66 0.33 1.32 0.66 2 1 C2 1.66 2 2.32 2 3 C2.66 3 3.32 3 4 3 C5.33333333 10.33333333 6.66666667 17.66666667 8 25 C3.99264783 24.39889717 1.44530629 22.33397972 -1.75 19.9375 C-2.73484375 19.20402344 -3.7196875 18.47054687 -4.734375 17.71484375 C-5.48203125 17.14894531 -6.2296875 16.58304688 -7 16 C-6.67 13.69 -6.34 11.38 -6 9 C-4.02 8.34 -2.04 7.68 0 7 C0 4.69 0 2.38 0 0 Z " fill="#554712" transform="translate(40,45)"/>
<path d="M0 0 C4.8 2.46153846 4.8 2.46153846 5.8125 5.1875 C5.874375 5.785625 5.93625 6.38375 6 7 C5.113125 7.721875 4.22625 8.44375 3.3125 9.1875 C1.11745888 10.97832609 -0.52079285 12.61672837 -2.375 14.8125 C-6.08015883 17.90013236 -8.28534669 17.39954689 -13 17 C-13 13.7 -13 10.4 -13 7 C-10.03 8.98 -10.03 8.98 -7 11 C-6.74605469 10.45730469 -6.49210937 9.91460937 -6.23046875 9.35546875 C-5.88628906 8.64003906 -5.54210938 7.92460938 -5.1875 7.1875 C-4.68283203 6.12595703 -4.68283203 6.12595703 -4.16796875 5.04296875 C-2.99354529 2.98870965 -1.74371984 1.58383722 0 0 Z " fill="#242D06" transform="translate(66,59)"/>
<path d="M0 0 C0.33 0 0.66 0 1 0 C1 3.63 1 7.26 1 11 C2.4932686 9.5067314 3.45264145 7.73034843 4.5625 5.9375 C5.01753906 5.20402344 5.47257812 4.47054687 5.94140625 3.71484375 C6.29074219 3.14894531 6.64007812 2.58304688 7 2 C8.27396229 5.82188686 7.47488806 6.70109238 5.75 10.25 C5.28722656 11.22066406 4.82445312 12.19132812 4.34765625 13.19140625 C3.90292969 14.11824219 3.45820313 15.04507813 3 16 C1.97558495 18.3238676 0.98787545 20.66029499 0 23 C-3.99870861 21.07469586 -7.84296719 19.15703281 -11 16 C-9.86498047 15.20335937 -9.86498047 15.20335937 -8.70703125 14.390625 C-5.67422362 11.71230138 -4.39187308 9.39656566 -2.6875 5.75 C-2.17574219 4.67234375 -1.66398437 3.5946875 -1.13671875 2.484375 C-0.76160156 1.66453125 -0.38648438 0.8446875 0 0 Z " fill="#1F1F30" transform="translate(19,42)"/>
<path d="M0 0 C4.79380555 2.45836182 4.79380555 2.45836182 5.6496582 4.70654297 C6.47619806 10.11735512 6.18477797 15.66461677 6.1875 21.125 C6.19974609 22.42566406 6.21199219 23.72632813 6.22460938 25.06640625 C6.22750977 26.92458984 6.22750977 26.92458984 6.23046875 28.8203125 C6.23457764 29.95742676 6.23868652 31.09454102 6.24291992 32.26611328 C6 35 6 35 4 37 C3.87882812 35.92621094 3.75765625 34.85242188 3.6328125 33.74609375 C3.46384385 32.30986025 3.29455596 30.87366428 3.125 29.4375 C3.04636719 28.73302734 2.96773437 28.02855469 2.88671875 27.30273438 C2.18514878 21.44732346 1.32682313 15.99023469 -2 11 C-1.67 10.01 -1.34 9.02 -1 8 C-0.01 9.485 -0.01 9.485 1 11 C0.67 7.37 0.34 3.74 0 0 Z " fill="#253A05" transform="translate(28,81)"/>
<path d="M0 0 C0.33 1.98 0.66 3.96 1 6 C-2.63 7.65 -6.26 9.3 -10 11 C-10.33 14.96 -10.66 18.92 -11 23 C-13.31 23 -15.62 23 -18 23 C-18.33 22.01 -18.66 21.02 -19 20 C-18.236875 19.29875 -17.47375 18.5975 -16.6875 17.875 C-13.99679913 14.99657581 -12.62910276 12.55440601 -11 9 C-6.07142857 0 -6.07142857 0 0 0 Z " fill="#000000" transform="translate(39,46)"/>
<path d="M0 0 C0.99 0.66 1.98 1.32 3 2 C2.67 2.66 2.34 3.32 2 4 C1.91528636 5.81341842 1.89278917 7.62994161 1.90234375 9.4453125 C1.90717773 11.05986328 1.90717773 11.05986328 1.91210938 12.70703125 C1.92048828 13.83496094 1.92886719 14.96289062 1.9375 16.125 C1.94201172 17.26066406 1.94652344 18.39632812 1.95117188 19.56640625 C1.96298385 22.37765638 1.97945493 25.1888023 2 28 C2.33 28 2.66 28 3 28 C3 29.98 3 31.96 3 34 C3.66 34 4.32 34 5 34 C4.814375 33.46375 4.62875 32.9275 4.4375 32.375 C3.88580676 29.38009386 4.39402556 26.96254171 5 24 C5.33 24 5.66 24 6 24 C6.03738281 24.61488281 6.07476562 25.22976562 6.11328125 25.86328125 C6.21189453 27.07564453 6.21189453 27.07564453 6.3125 28.3125 C6.39951172 29.51326172 6.39951172 29.51326172 6.48828125 30.73828125 C6.8827572 33.41639162 6.8827572 33.41639162 10 36 C5.71 36 1.42 36 -3 36 C-2.34 34.35 -1.68 32.7 -1 31 C-0.74227443 27.85754886 -0.74227443 27.85754886 -0.83984375 24.4921875 C-0.85080078 23.25855469 -0.86175781 22.02492188 -0.87304688 20.75390625 C-0.89431641 19.47386719 -0.91558594 18.19382812 -0.9375 16.875 C-0.97188128 14.33078521 -1.00203375 11.7865087 -1.02734375 9.2421875 C-1.04531006 8.1166748 -1.06327637 6.99116211 -1.08178711 5.83154297 C-1 3 -1 3 0 0 Z " fill="#7F470B" transform="translate(34,85)"/>
<path d="M0 0 C3.33815542 3.84789724 5.06829276 8.3673086 7.046875 13 C7.42233459 13.87269531 7.79779419 14.74539062 8.18463135 15.64453125 C8.97414665 17.48573212 9.7606839 19.32821248 10.54443359 21.171875 C11.74787168 23.9950072 12.96916648 26.80996606 14.19140625 29.625 C14.95683585 31.41619415 15.72119565 33.20784592 16.484375 35 C16.85197937 35.84175781 17.21958374 36.68351562 17.59832764 37.55078125 C17.92907288 38.33839844 18.25981812 39.12601563 18.60058594 39.9375 C18.89576111 40.62714844 19.19093628 41.31679687 19.49505615 42.02734375 C20.09298737 44.36327232 19.76022614 45.74041045 19 48 C15.48482354 40.17827642 11.97608613 32.35374076 8.47698975 24.52481079 C6.84734466 20.88193608 5.20353128 17.2460616 3.54296875 13.6171875 C2.90353872 12.20317343 2.26420393 10.78911629 1.625 9.375 C1.08101563 8.18648437 0.53703125 6.99796875 -0.0234375 5.7734375 C-1 3 -1 3 0 0 Z " fill="#FF9311" transform="translate(64,73)"/>
<path d="M0 0 C5.875 3.625 5.875 3.625 7 7 C6.01 7.99 5.02 8.98 4 10 C3.67 9.67 3.34 9.34 3 9 C1.35 11.97 -0.3 14.94 -2 18 C-2.66 17.67 -3.32 17.34 -4 17 C-3.91266027 14.91589342 -3.80447722 12.83265331 -3.6875 10.75 C-3.62949219 9.58984375 -3.57148438 8.4296875 -3.51171875 7.234375 C-2.98288197 3.89180362 -2.26227667 2.4502943 0 0 Z " fill="#09151E" transform="translate(23,36)"/>
<path d="M0 0 C2.62187494 1.04874998 3.79371361 1.64931313 5.25 4.125 C5.4975 4.74375 5.745 5.3625 6 6 C6.66 6 7.32 6 8 6 C8.66 7.98 9.32 9.96 10 12 C9 13 9 13 5.9375 13.0625 C4.968125 13.041875 3.99875 13.02125 3 13 C2.731875 12.195625 2.46375 11.39125 2.1875 10.5625 C1.795625 9.716875 1.40375 8.87125 1 8 C0.01 7.67 -0.98 7.34 -2 7 C-1.125 2.25 -1.125 2.25 0 0 Z " fill="#766007" transform="translate(12,61)"/>
<path d="M0 0 C1.65 0 3.3 0 5 0 C7.84984298 4.65474354 9.7023817 8.70139194 11 14 C6.32894208 12.44298069 2.91294315 9.91552627 -1 7 C-0.67 4.69 -0.34 2.38 0 0 Z " fill="#4B4B0C" transform="translate(34,54)"/>
<path d="M0 0 C3.12270126 2.51830747 3.94523098 3.7261549 4.75 7.75 C4.87375 9.35875 4.87375 9.35875 5 11 C4.01 11 3.02 11 2 11 C1.731875 11.639375 1.46375 12.27875 1.1875 12.9375 C0 15 0 15 -3 16 C-3.28875 15.195625 -3.5775 14.39125 -3.875 13.5625 C-4.73262568 10.8673532 -4.73262568 10.8673532 -7 10 C-6.34 10 -5.68 10 -5 10 C-4.34 8.35 -3.68 6.7 -3 5 C-1.68 6.32 -0.36 7.64 1 9 C1.33 7.35 1.66 5.7 2 4 C1.34 4 0.68 4 0 4 C0 2.68 0 1.36 0 0 Z " fill="#A749A7" transform="translate(40,4)"/>
<path d="M0 0 C1.98 0.99 1.98 0.99 4 2 C4 2.66 4 3.32 4 4 C4.99 4 5.98 4 7 4 C7.33 3.34 7.66 2.68 8 2 C12 8.75 12 8.75 12 11 C10.35 10.67 8.7 10.34 7 10 C6.67 10.99 6.34 11.98 6 13 C3.59195432 10.59195432 2.99231241 8.57796225 1.875 5.375 C1.52179687 4.37210938 1.16859375 3.36921875 0.8046875 2.3359375 C0.53914063 1.56507812 0.27359375 0.79421875 0 0 Z " fill="#0B1921" transform="translate(44,36)"/>
<path d="M0 0 C0.66 0.33 1.32 0.66 2 1 C2.94148531 3.82445592 3.07311695 5.14171618 2.87890625 8.01171875 C2.83056641 8.76904297 2.78222656 9.52636719 2.73242188 10.30664062 C2.67634766 11.09232422 2.62027344 11.87800781 2.5625 12.6875 C2.51029297 13.48478516 2.45808594 14.28207031 2.40429688 15.10351562 C2.27480978 17.06936522 2.13809959 19.03473665 2 21 C1.01 20.67 0.02 20.34 -1 20 C-1.02689449 17.04160645 -1.04678741 14.08345573 -1.0625 11.125 C-1.07087891 10.28324219 -1.07925781 9.44148438 -1.08789062 8.57421875 C-1.09111328 7.76855469 -1.09433594 6.96289062 -1.09765625 6.1328125 C-1.10289307 5.38918457 -1.10812988 4.64555664 -1.11352539 3.87939453 C-1 2 -1 2 0 0 Z " fill="#1F1F31" transform="translate(34,65)"/>
<path d="M0 0 C2.0625 -0.375 2.0625 -0.375 5 0 C6.93399932 1.35984327 8.61913713 2.86505629 10.3515625 4.47265625 C12.06259871 6.12146397 12.06259871 6.12146397 14.4375 7.75 C14.953125 8.1625 15.46875 8.575 16 9 C16 9.66 16 10.32 16 11 C13.69 11.66 11.38 12.32 9 13 C8.7215625 11.4221875 8.7215625 11.4221875 8.4375 9.8125 C7.13092769 5.04109149 4.05400839 3.5525238 0 1 C0 0.67 0 0.34 0 0 Z " fill="#0D1119" transform="translate(0,65)"/>
<path d="M0 0 C4.70689655 2.4137931 4.70689655 2.4137931 6 5 C6 7 6 7 4.75 8.75 C3 10 3 10 0 10 C-1.8125 7.75 -1.8125 7.75 -3 5 C-2.28541109 2.85623326 -1.58775583 1.58775583 0 0 Z " fill="#966C0E" transform="translate(66,59)"/>
<path d="M0 0 C1.32 0.66 2.64 1.32 4 2 C3.93994409 4.10495964 3.85114641 6.20911435 3.75 8.3125 C3.70359375 9.48425781 3.6571875 10.65601562 3.609375 11.86328125 C3 15 3 15 -1 18 C-0.505 9.09 -0.505 9.09 0 0 Z " fill="#1F1F31" transform="translate(43,68)"/>
<path d="M0 0 C0.66 0.66 1.32 1.32 2 2 C1.9765625 5.0390625 1.9765625 5.0390625 1.625 8.625 C1.51414062 9.81351563 1.40328125 11.00203125 1.2890625 12.2265625 C1.19367187 13.14179687 1.09828125 14.05703125 1 15 C0.70351563 14.36835937 0.40703125 13.73671875 0.1015625 13.0859375 C-0.86554289 10.94023537 -0.86554289 10.94023537 -2.625 9.625 C-4.6802674 7.19604762 -4.20441794 5.06626911 -4 2 C-2.68 1.34 -1.36 0.68 0 0 Z " fill="#14242B" transform="translate(33,22)"/>
<path d="M0 0 C0.99 0.33 1.98 0.66 3 1 C2.8125 3.375 2.8125 3.375 2 6 C-0.4375 7.1875 -0.4375 7.1875 -3 8 C-3.66 8.66 -4.32 9.32 -5 10 C-5.66 9.67 -6.32 9.34 -7 9 C-6.875 6.75 -6.875 6.75 -6 4 C-3.125 1.625 -3.125 1.625 0 0 Z " fill="#060306" transform="translate(35,4)"/>
<path d="M0 0 C0.66 0.33 1.32 0.66 2 1 C2 1.66 2 2.32 2 3 C2.66 3 3.32 3 4 3 C4.39253254 7.44870215 3.15305957 10.14243493 1 14 C-1 11 -1 11 -1 9 C-1.99 8.67 -2.98 8.34 -4 8 C-2.68 7.67 -1.36 7.34 0 7 C0 4.69 0 2.38 0 0 Z " fill="#765F07" transform="translate(40,45)"/>
<path d="M0 0 C1.04735194 3.14205583 0.98468283 3.96918276 0.2578125 7.0546875 C0.07863281 7.83457031 -0.10054687 8.61445312 -0.28515625 9.41796875 C-0.47980469 10.22878906 -0.67445312 11.03960937 -0.875 11.875 C-1.24773685 13.47648317 -1.62014173 15.07804364 -1.9921875 16.6796875 C-2.1684668 17.42831055 -2.34474609 18.17693359 -2.52636719 18.94824219 C-3.06690114 21.28981299 -3.55078899 23.63925278 -4 26 C-4.33 26 -4.66 26 -5 26 C-5.31778834 17.89639723 -5.23085774 8.12916186 -1 1 C-0.67 0.67 -0.34 0.34 0 0 Z " fill="#764D07" transform="translate(45,83)"/>
<path d="M0 0 C0.99 0 1.98 0 3 0 C2.47557578 3.7758544 1.67345333 6.22372155 -1 9 C-1.99 9 -2.98 9 -4 9 C-4 8.34 -4 7.68 -4 7 C-5.32 6.34 -6.64 5.68 -8 5 C-6.865625 4.54625 -5.73125 4.0925 -4.5625 3.625 C-0.95278308 2.42904194 -0.95278308 2.42904194 0 0 Z " fill="#3B1B39" transform="translate(42,15)"/>
<path d="M0 0 C0.66 0 1.32 0 2 0 C2 0.66 2 1.32 2 2 C2.66 2 3.32 2 4 2 C4.66 3.98 5.32 5.96 6 8 C5 9 5 9 1.9375 9.0625 C0.968125 9.041875 -0.00125 9.02125 -1 9 C-0.67 6.03 -0.34 3.06 0 0 Z " fill="#6F3A07" transform="translate(16,65)"/>
<path d="M0 0 C-0.33 0.99 -0.66 1.98 -1 3 C-1.10540926 5.21081851 -1.10540926 5.21081851 0 8 C-0.94875 7.814375 -1.8975 7.62875 -2.875 7.4375 C-5.89868793 6.71313368 -5.89868793 6.71313368 -8 8 C-8.3125 5.6875 -8.3125 5.6875 -8 3 C-5.13896577 0.75756777 -3.65923696 0 0 0 Z " fill="#653958" transform="translate(37,10)"/>
<path d="M0 0 C0.66 0 1.32 0 2 0 C3.23076923 5.41538462 3.23076923 5.41538462 2.0625 8.375 C1.711875 8.91125 1.36125 9.4475 1 10 C0.01 10 -0.98 10 -2 10 C-2.17942163 6.05272412 -2.09350689 3.4019487 0 0 Z " fill="#000000" transform="translate(41,22)"/>
<path d="M0 0 C2.52588702 2.36292656 3.88820837 3.66462511 5 7 C3.68 8.32 2.36 9.64 1 11 C-1.125 3.375 -1.125 3.375 0 0 Z " fill="#3E612D" transform="translate(62,63)"/>
<path d="M0 0 C0.33 0 0.66 0 1 0 C1 2.31 1 4.62 1 7 C1.99 7.33 2.98 7.66 4 8 C3.34 9.65 2.68 11.3 2 13 C0.35 11.35 -1.3 9.7 -3 8 C-2.34 7.67 -1.68 7.34 -1 7 C-0.59270772 4.67843403 -0.25561323 2.3431213 0 0 Z " fill="#764C07" transform="translate(38,25)"/>
<path d="M0 0 C-1.29299694 2.88437779 -2.65941363 4.87219421 -5 7 C-6.32 6.34 -7.64 5.68 -9 5 C-3.375 0 -3.375 0 0 0 Z " fill="#623606" transform="translate(10,59)"/>
<path d="M0 0 C2.0625 1.75 2.0625 1.75 4 4 C3.91773794 6.71464802 3.23959034 7.73165881 1.4375 9.75 C0.7259375 10.36875 0.7259375 10.36875 0 11 C-0.28875 10.195625 -0.5775 9.39125 -0.875 8.5625 C-1.73262568 5.8673532 -1.73262568 5.8673532 -4 5 C-3.34 5 -2.68 5 -2 5 C-1.34 3.35 -0.68 1.7 0 0 Z " fill="#DBCBE0" transform="translate(37,9)"/>
<path d="M0 0 C3.465 1.485 3.465 1.485 7 3 C6.34 4.32 5.68 5.64 5 7 C4.67 6.34 4.34 5.68 4 5 C0.97065509 4.34227572 0.97065509 4.34227572 -2 4 C-1.34 2.68 -0.68 1.36 0 0 Z " fill="#A45AA4" transform="translate(40,39)"/>
<path d="M0 0 C3.3309303 -0.37010337 4.62731223 -0.27461204 7.375 1.75 C9 4 9 4 8.75 6.25 C8.5025 6.8275 8.255 7.405 8 8 C5.33333333 5.33333333 2.66666667 2.66666667 0 0 Z " fill="#000000" transform="translate(0,65)"/>
<path d="M0 0 C0.66 0.33 1.32 0.66 2 1 C2.625 4.0625 2.625 4.0625 3 7 C0.69 6.34 -1.62 5.68 -4 5 C-4 4.34 -4 3.68 -4 3 C-3.01 2.67 -2.02 2.34 -1 2 C-0.67 1.34 -0.34 0.68 0 0 Z " fill="#30303D" transform="translate(46,43)"/>
<path d="M0 0 C0.33 0 0.66 0 1 0 C1.03738281 0.61488281 1.07476562 1.22976562 1.11328125 1.86328125 C1.17902344 2.67152344 1.24476562 3.47976562 1.3125 4.3125 C1.37050781 5.11300781 1.42851563 5.91351563 1.48828125 6.73828125 C2.08206694 9.36272334 2.95780294 10.30820672 5 12 C3.02 12 1.04 12 -1 12 C-1.33 11.34 -1.66 10.68 -2 10 C-1.34 10 -0.68 10 0 10 C-0.185625 9.46375 -0.37125 8.9275 -0.5625 8.375 C-1.11419324 5.38009386 -0.60597444 2.96254171 0 0 Z " fill="#6F3C06" transform="translate(39,109)"/>
<path d="M0 0 C0.99 0.99 1.98 1.98 3 3 C3.66 2.34 4.32 1.68 5 1 C5 4.96 5 8.92 5 13 C4.67 13 4.34 13 4 13 C3.566875 11.3603125 3.566875 11.3603125 3.125 9.6875 C2.18106796 5.95986155 2.18106796 5.95986155 0 3 C0 2.01 0 1.02 0 0 Z " fill="#42460C" transform="translate(26,89)"/>
<path d="M0 0 C4.8 2.46153846 4.8 2.46153846 5.8125 5.1875 C5.874375 5.785625 5.93625 6.38375 6 7 C5.01 7 4.02 7 3 7 C0.8125 4 0.8125 4 -1 1 C-0.67 0.67 -0.34 0.34 0 0 Z " fill="#763B07" transform="translate(66,59)"/>
<path d="M0 0 C2.475 0.99 2.475 0.99 5 2 C5 3.98 5 5.96 5 8 C3.68 7.67 2.36 7.34 1 7 C0.67 4.69 0.34 2.38 0 0 Z " fill="#543255" transform="translate(37,6)"/>
<path d="M0 0 C0.99 0.33 1.98 0.66 3 1 C2.34 3.31 1.68 5.62 1 8 C0.01 7.67 -0.98 7.34 -2 7 C-1.125 2.25 -1.125 2.25 0 0 Z " fill="#EA8D23" transform="translate(12,61)"/>
<path d="M0 0 C4.42857143 5.14285714 4.42857143 5.14285714 5 9 C1.17053157 7.54744301 -0.12050295 5.57104439 -2 2 C-1.34 2 -0.68 2 0 2 C0 1.34 0 0.68 0 0 Z " fill="#232130" transform="translate(51,38)"/>
<path d="M0 0 C0.99 0.33 1.98 0.66 3 1 C2.67 2.65 2.34 4.3 2 6 C0.68 6.33 -0.64 6.66 -2 7 C-2.125 4.625 -2.125 4.625 -2 2 C-1.34 1.34 -0.68 0.68 0 0 Z " fill="#18111C" transform="translate(35,4)"/>
<path d="M0 0 C0.33 0 0.66 0 1 0 C0.67 2.97 0.34 5.94 0 9 C-1.65 9.66 -3.3 10.32 -5 11 C-3.35 7.37 -1.7 3.74 0 0 Z " fill="#2A3406" transform="translate(19,42)"/>
<path d="M0 0 C3.3 0 6.6 0 10 0 C9.01 0.33 8.02 0.66 7 1 C7 1.66 7 2.32 7 3 C4.0625 2.625 4.0625 2.625 1 2 C0.67 1.34 0.34 0.68 0 0 Z " fill="#8C9D99" transform="translate(26,0)"/>
</svg>
