<?xml version="1.0" encoding="UTF-8"?>
<svg version="1.1" xmlns="http://www.w3.org/2000/svg" width="152" height="94">
<path d="M0 0 C1.9375 0.8125 1.9375 0.8125 4 2 C5.25433458 5.76300374 5.10695422 9.27210909 5.0625 13.1875 C5.05798828 13.93708984 5.05347656 14.68667969 5.04882812 15.45898438 C5.03706354 17.30602383 5.01912865 19.15302213 5 21 C6.65 20.67 8.3 20.34 10 20 C10.268125 19.030625 10.53625 18.06125 10.8125 17.0625 C11.204375 16.051875 11.59625 15.04125 12 14 C12.99 13.67 13.98 13.34 15 13 C15.33 12.34 15.66 11.68 16 11 C16.886875 11.33 17.77375 11.66 18.6875 12 C21.85455168 13.16990141 21.85455168 13.16990141 24.6875 12.8125 C25.450625 12.874375 26.21375 12.93625 27 13 C28.8125 15.5 28.8125 15.5 30 18 C30.48919922 16.95199219 30.48919922 16.95199219 30.98828125 15.8828125 C31.42527344 14.97273437 31.86226562 14.06265625 32.3125 13.125 C32.74175781 12.22007813 33.17101563 11.31515625 33.61328125 10.3828125 C35 8 35 8 38 6 C41.1875 5.875 41.1875 5.875 44 6 C44.6494525 11.97496295 42.98968982 15.3981428 40.18359375 20.63671875 C38.48697138 24.02436407 37.49130979 27.15021743 38.515625 30.875 C39.06857817 33.30085907 38.92976652 35.16215706 38.625 37.625 C38.53476563 38.40101562 38.44453125 39.17703125 38.3515625 39.9765625 C38 42 38 42 37 44 C37.99 43.9175 38.98 43.835 40 43.75 C44.63216138 43.75 48.18071745 45.4796176 52 48 C54.54790426 50.62752627 55 51.30715574 55 55 C57.31 54.34 59.62 53.68 62 53 C62 52.01 62 51.02 62 50 C62.66 50 63.32 50 64 50 C64 48.68 64 47.36 64 46 C64.99 46 65.98 46 67 46 C67 45.34 67 44.68 67 44 C73.0546875 43.8046875 73.0546875 43.8046875 75 44 C75.66 44.66 76.32 45.32 77 46 C78.05316406 45.68546875 79.10632813 45.3709375 80.19140625 45.046875 C84.0047011 43.91249541 87.82241674 42.79391631 91.64306641 41.68457031 C93.16163738 41.24350205 94.67959286 40.80030634 96.19677734 40.35449219 C98.21132671 39.76603542 100.22967716 39.19327159 102.25 38.625 C103.43078125 38.28726563 104.6115625 37.94953125 105.828125 37.6015625 C109.12561931 36.97617565 110.8699048 36.83328143 114 38 C116.45703125 40.06640625 116.45703125 40.06640625 118.8125 42.5625 C119.99779297 43.80193359 119.99779297 43.80193359 121.20703125 45.06640625 C121.79871094 45.70449219 122.39039063 46.34257813 123 47 C122.67 47.99 122.34 48.98 122 50 C119.50360618 50.94954857 117.13390189 51.69455966 114.5625 52.375 C113.81347412 52.58342529 113.06444824 52.79185059 112.29272461 53.0065918 C110.69528503 53.44987424 109.09634361 53.88777317 107.49609375 54.32080078 C104.97139502 55.00778355 102.45406291 55.71742351 99.9375 56.43359375 C98.31263669 56.89371214 96.68764037 57.35336113 95.0625 57.8125 C93.90053101 58.14096924 93.90053101 58.14096924 92.71508789 58.47607422 C87.23276182 60 87.23276182 60 85 60 C85 60.66 85 61.32 85 62 C84.07767578 62.19916016 84.07767578 62.19916016 83.13671875 62.40234375 C82.32847656 62.57894531 81.52023438 62.75554688 80.6875 62.9375 C79.88699219 63.11152344 79.08648437 63.28554688 78.26171875 63.46484375 C75.854599 63.99886159 75.854599 63.99886159 73 65 C71.64082143 64.03542166 70.30915279 63.03145371 69 62 C66.85266073 61.29485154 66.85266073 61.29485154 65 61 C65 60.34 65 59.68 65 59 C62.03 59.66 59.06 60.32 56 61 C56 61.66 56 62.32 56 63 C54.0085944 63.38133299 52.00720923 63.71325582 50 64 C49.67 63.67 49.34 63.34 49 63 C47.48071962 62.92820036 45.95832518 62.91607993 44.4375 62.9375 C43.61121094 62.94652344 42.78492187 62.95554688 41.93359375 62.96484375 C41.29550781 62.97644531 40.65742187 62.98804688 40 63 C39.67 64.65 39.34 66.3 39 68 C40.485 68.495 40.485 68.495 42 69 C42.6875 71.3125 42.6875 71.3125 43 74 C41.5625 75.8125 41.5625 75.8125 40 77 C40.99 78.485 40.99 78.485 42 80 C41.566875 80.556875 41.13375 81.11375 40.6875 81.6875 C38.96527882 84.04758087 37.49225384 86.49030036 36 89 C35.67 89.33 35.34 89.66 35 90 C37.64 90.99 40.28 91.98 43 93 C43 93.33 43 93.66 43 94 C36.4 94 29.8 94 23 94 C23 89 23 89 25.5 86.1875 C26.325 85.465625 27.15 84.74375 28 84 C27.34 82.02 26.68 80.04 26 78 C25.46375 78.33 24.9275 78.66 24.375 79 C19.81415964 80.92035383 16.122102 80.17648149 11.625 78.5 C10.42875 78.005 9.2325 77.51 8 77 C7.4225 77.61875 6.845 78.2375 6.25 78.875 C4 81 4 81 1.9375 82 C-0.1756677 82.90194924 -0.1756677 82.90194924 -1.5 85.125 C-1.995 85.74375 -2.49 86.3625 -3 87 C-4.32 87 -5.64 87 -7 87 C-7.33 89.31 -7.66 91.62 -8 94 C-11.3 94 -14.6 94 -18 94 C-18 89 -18 89 -16.6875 87.25 C-15 86 -15 86 -12 85 C-11.67 81.7 -11.34 78.4 -11 75 C-12.65 74.34 -14.3 73.68 -16 73 C-16 71.35 -16 69.7 -16 68 C-16.78375 67.9175 -17.5675 67.835 -18.375 67.75 C-19.674375 67.37875 -19.674375 67.37875 -21 67 C-21.69937532 65.68352881 -22.36729133 64.34977849 -23 63 C-25.01508358 62.26676204 -25.01508358 62.26676204 -27 62 C-28 61 -28 61 -28.0625 57.875 C-28.02083333 55.29166667 -27.97916667 52.70833333 -27.9375 50.125 C-27.63635467 47.1327033 -27.63635467 47.1327033 -29 46 C-29.0979057 44.50261876 -29.12974864 43.00057108 -29.125 41.5 C-29.12757812 40.6853125 -29.13015625 39.870625 -29.1328125 39.03125 C-29 37 -29 37 -28 36 C-26.5653041 35.90105545 -25.12559603 35.87029265 -23.6875 35.875 C-22.90761719 35.87242188 -22.12773437 35.86984375 -21.32421875 35.8671875 C-19 36 -19 36 -17.01953125 36.5078125 C-14.53680499 37.19731928 -14.53680499 37.19731928 -10 37 C-10 32.71 -10 28.42 -10 24 C-9.030625 23.525625 -8.06125 23.05125 -7.0625 22.5625 C-4.19522563 21.29806053 -4.19522563 21.29806053 -3 20 C-2.62421158 17.0201153 -2.29308963 14.05064039 -2 11.0625 C-1.83689092 9.40719767 -1.67038206 7.75222578 -1.5 6.09765625 C-1.4278125 5.36039307 -1.355625 4.62312988 -1.28125 3.86352539 C-1 2 -1 2 0 0 Z M0 36 C-3.67629052 38.52174838 -3.67629052 38.52174838 -5.9375 42.25 C-6.02523799 46.11047142 -5.06874344 49.29083159 -4 53 C-3.2575 52.21625 -2.515 51.4325 -1.75 50.625 C0.54433318 48.43495469 2.12158858 47.17268614 5 46 C4.49701212 41.59885603 2.91227269 39.28804981 0 36 Z M25 42 C25 42.66 25 43.32 25 44 C23.02 44.33 21.04 44.66 19 45 C19 45.66 19 46.32 19 47 C19.61488281 47.14695312 20.22976562 47.29390625 20.86328125 47.4453125 C23.36710028 48.14015223 25.65811187 48.86914231 28 50 C29.03432904 51.98246398 30.03238392 53.98413316 31 56 C35.62931825 59.54821998 40.05969167 61.76157799 46 61 C46.03766083 57.61668789 46.03766083 57.61668789 45 54 C42.6388754 52.38677089 40.84615215 51.40505227 38.25 50.375 C33.25188705 48.28035515 29.71528962 46.03177726 26 42 C25.67 42 25.34 42 25 42 Z " fill="#372249" transform="translate(29,0)"/>
<path d="M0 0 C1.9375 0.8125 1.9375 0.8125 4 2 C5.25433458 5.76300374 5.10695422 9.27210909 5.0625 13.1875 C5.05798828 13.93708984 5.05347656 14.68667969 5.04882812 15.45898438 C5.03706354 17.30602383 5.01912865 19.15302213 5 21 C6.65 20.67 8.3 20.34 10 20 C10.268125 19.030625 10.53625 18.06125 10.8125 17.0625 C11.204375 16.051875 11.59625 15.04125 12 14 C12.99 13.67 13.98 13.34 15 13 C15.33 12.34 15.66 11.68 16 11 C16.886875 11.33 17.77375 11.66 18.6875 12 C21.85455168 13.16990141 21.85455168 13.16990141 24.6875 12.8125 C25.450625 12.874375 26.21375 12.93625 27 13 C28.8125 15.5 28.8125 15.5 30 18 C30.48919922 16.95199219 30.48919922 16.95199219 30.98828125 15.8828125 C31.42527344 14.97273437 31.86226562 14.06265625 32.3125 13.125 C32.74175781 12.22007813 33.17101563 11.31515625 33.61328125 10.3828125 C35 8 35 8 38 6 C41.1875 5.875 41.1875 5.875 44 6 C44.6494525 11.97496295 42.98968982 15.3981428 40.18359375 20.63671875 C38.46920655 24.0598351 37.47426466 27.18913383 38.5625 30.9375 C39.26712291 34.25929374 38.10428225 36.8615136 37 40 C36.01 40.99 36.01 40.99 35 42 C33.68 40.68 32.36 39.36 31 38 C31.495 39.98 31.495 39.98 32 42 C30.68 42 29.36 42 28 42 C27.15545644 38.62182575 26.89155081 36.32534757 28 33 C27.154375 33.86625 26.30875 34.7325 25.4375 35.625 C23.796875 37.0078125 23.796875 37.0078125 22 38 C18.1875 37.5 18.1875 37.5 15 36 C14.67 35.01 14.34 34.02 14 33 C12.05000871 33.19471111 12.05000871 33.19471111 10 34 C8.71563266 35.9837767 8.71563266 35.9837767 8 38 C7.505 36.02 7.505 36.02 7 34 C4.09926819 33.32198966 4.09926819 33.32198966 1 33 C0.34 33.66 -0.32 34.32 -1 35 C-4.55555556 37 -4.55555556 37 -7 37 C-7.33 37.66 -7.66 38.32 -8 39 C-8.66 38.67 -9.32 38.34 -10 38 C-8.75023244 41.65316671 -8.32901247 42.78065836 -5 45 C-4.29947539 47.663063 -4.22255182 50.24035737 -4 53 C-4.495 52.360625 -4.99 51.72125 -5.5 51.0625 C-9.521398 47.74484665 -13.63667316 47.94503891 -18.6875 48.0625 C-22.17387315 49.47589452 -23.77089635 52.04794381 -26 55 C-26.66 55.66 -27.32 56.32 -28 57 C-27.98839844 56.28972656 -27.97679688 55.57945313 -27.96484375 54.84765625 C-27.95582031 53.92855469 -27.94679688 53.00945313 -27.9375 52.0625 C-27.92009766 50.68771484 -27.92009766 50.68771484 -27.90234375 49.28515625 C-27.74050951 47.03406673 -27.74050951 47.03406673 -29 46 C-29.0979057 44.50261876 -29.12974864 43.00057108 -29.125 41.5 C-29.12757812 40.6853125 -29.13015625 39.870625 -29.1328125 39.03125 C-29 37 -29 37 -28 36 C-26.5653041 35.90105545 -25.12559603 35.87029265 -23.6875 35.875 C-22.90761719 35.87242188 -22.12773437 35.86984375 -21.32421875 35.8671875 C-19 36 -19 36 -17.01953125 36.5078125 C-14.53680499 37.19731928 -14.53680499 37.19731928 -10 37 C-10 32.71 -10 28.42 -10 24 C-9.030625 23.525625 -8.06125 23.05125 -7.0625 22.5625 C-4.19522563 21.29806053 -4.19522563 21.29806053 -3 20 C-2.62421158 17.0201153 -2.29308963 14.05064039 -2 11.0625 C-1.83689092 9.40719767 -1.67038206 7.75222578 -1.5 6.09765625 C-1.4278125 5.36039307 -1.355625 4.62312988 -1.28125 3.86352539 C-1 2 -1 2 0 0 Z " fill="#D96E2E" transform="translate(29,0)"/>
<path d="M0 0 C2.45703125 2.06640625 2.45703125 2.06640625 4.8125 4.5625 C5.60269531 5.38878906 6.39289063 6.21507812 7.20703125 7.06640625 C7.79871094 7.70449219 8.39039063 8.34257813 9 9 C8.67 9.99 8.34 10.98 8 12 C5.50360618 12.94954857 3.13390189 13.69455966 0.5625 14.375 C-0.56103882 14.68763794 -0.56103882 14.68763794 -1.70727539 15.0065918 C-3.30471497 15.44987424 -4.90365639 15.88777317 -6.50390625 16.32080078 C-9.02860498 17.00778355 -11.54593709 17.71742351 -14.0625 18.43359375 C-15.68736331 18.89371214 -17.31235963 19.35336113 -18.9375 19.8125 C-19.712146 20.03147949 -20.48679199 20.25045898 -21.28491211 20.47607422 C-26.76723818 22 -26.76723818 22 -29 22 C-29 22.66 -29 23.32 -29 24 C-29.92232422 24.19916016 -29.92232422 24.19916016 -30.86328125 24.40234375 C-32.07564453 24.66724609 -32.07564453 24.66724609 -33.3125 24.9375 C-34.11300781 25.11152344 -34.91351563 25.28554688 -35.73828125 25.46484375 C-38.145401 25.99886159 -38.145401 25.99886159 -41 27 C-42.35917857 26.03542166 -43.69084721 25.03145371 -45 24 C-47.14733927 23.29485154 -47.14733927 23.29485154 -49 23 C-49 22.34 -49 21.68 -49 21 C-51.97 21.66 -54.94 22.32 -58 23 C-58 23.66 -58 24.32 -58 25 C-59.9914056 25.38133299 -61.99279077 25.71325582 -64 26 C-64.33 25.67 -64.66 25.34 -65 25 C-66.51928038 24.92820036 -68.04167482 24.91607993 -69.5625 24.9375 C-70.80193359 24.95103516 -70.80193359 24.95103516 -72.06640625 24.96484375 C-72.70449219 24.97644531 -73.34257813 24.98804687 -74 25 C-74 24.34 -74 23.68 -74 23 C-72.02 23 -70.04 23 -68 23 C-68 22.34 -68 21.68 -68 21 C-66.02 20.67 -64.04 20.34 -62 20 C-62.99 19.67 -63.98 19.34 -65 19 C-65.75 17 -65.75 17 -66 15 C-65 14 -65 14 -61.9375 13.9375 C-60.4834375 13.9684375 -60.4834375 13.9684375 -59 14 C-59 14.99 -59 15.98 -59 17 C-56.69 16.34 -54.38 15.68 -52 15 C-52 14.01 -52 13.02 -52 12 C-51.34 12 -50.68 12 -50 12 C-50 10.68 -50 9.36 -50 8 C-49.01 8 -48.02 8 -47 8 C-47 7.34 -47 6.68 -47 6 C-40.9453125 5.8046875 -40.9453125 5.8046875 -39 6 C-38.34 6.66 -37.68 7.32 -37 8 C-35.94683594 7.68546875 -34.89367187 7.3709375 -33.80859375 7.046875 C-29.9952989 5.91249541 -26.17758326 4.79391631 -22.35693359 3.68457031 C-20.83836262 3.24350205 -19.32040714 2.80030634 -17.80322266 2.35449219 C-15.78867329 1.76603542 -13.77032284 1.19327159 -11.75 0.625 C-10.56921875 0.28726563 -9.3884375 -0.05046875 -8.171875 -0.3984375 C-4.87438069 -1.02382435 -3.1300952 -1.16671857 0 0 Z " fill="#5F4B7F" transform="translate(143,38)"/>
<path d="M0 0 C0.66 0.33 1.32 0.66 2 1 C2 1.66 2 2.32 2 3 C4.31 2.34 6.62 1.68 9 1 C9 1.66 9 2.32 9 3 C9.928125 3.0825 10.85625 3.165 11.8125 3.25 C15 4 15 4 16.875 6.0625 C17.24625 6.701875 17.6175 7.34125 18 8 C17.01 8 16.02 8 15 8 C15.7187807 15.04207705 15.7187807 15.04207705 17 22 C17.66 22 18.32 22 19 22 C19.36698687 27.50480298 19.36698687 27.50480298 17.78125 29.64453125 C14.3601253 32.24788711 10.17285743 32.12905745 6 32 C3.101756 31.2696239 0.73055588 30.26414624 -2 29 C-2.5775 29.61875 -3.155 30.2375 -3.75 30.875 C-6 33 -6 33 -8.0625 34 C-10.1756677 34.90194924 -10.1756677 34.90194924 -11.5 37.125 C-11.995 37.74375 -12.49 38.3625 -13 39 C-14.32 39 -15.64 39 -17 39 C-17.33 41.31 -17.66 43.62 -18 46 C-21.3 46 -24.6 46 -28 46 C-28 41 -28 41 -26.6875 39.25 C-25 38 -25 38 -22 37 C-21.67 33.7 -21.34 30.4 -21 27 C-21.99 26.67 -22.98 26.34 -24 26 C-23.67 25.34 -23.34 24.68 -23 24 C-20.67843403 23.59270772 -18.3431213 23.25561323 -16 23 C-15.34 21.35 -14.68 19.7 -14 18 C-13.236875 18.103125 -12.47375 18.20625 -11.6875 18.3125 C-8.84437538 18.29770489 -8.84437538 18.29770489 -7.3125 15.9375 C-5.89883996 12.97515367 -5.89883996 12.97515367 -5.0625 9.5625 C-3.89001381 5.63122279 -2.3990601 3.27871547 0 0 Z " fill="#1F1F35" transform="translate(39,48)"/>
<path d="M0 0 C2.9375 0.75 2.9375 0.75 4.9375 2.75 C4.31875 3.554375 3.7 4.35875 3.0625 5.1875 C0.79217503 8.53324206 0.13558823 11.74221252 -0.47265625 15.69921875 C-1.18190447 18.16514798 -2.04307646 19.19131872 -4.0625 20.75 C-6.75 20.9375 -6.75 20.9375 -9.0625 20.75 C-9.330625 21.36875 -9.59875 21.9875 -9.875 22.625 C-11.0625 24.75 -11.0625 24.75 -14.0625 26.75 C-16.39449388 26.82905064 -18.73082622 26.83798769 -21.0625 26.75 C-21.0625 25.1 -21.0625 23.45 -21.0625 21.75 C-21.84625 21.6675 -22.63 21.585 -23.4375 21.5 C-24.30375 21.2525 -25.17 21.005 -26.0625 20.75 C-26.76187532 19.43352881 -27.42979133 18.09977849 -28.0625 16.75 C-30.11250871 15.94471111 -30.11250871 15.94471111 -32.0625 15.75 C-33.04879017 12.61180401 -33.28175401 11.22312707 -31.875 8.1875 C-27.36874093 2.12735849 -27.36874093 2.12735849 -23.25 0.9375 C-18.87573259 0.68019015 -14.75842379 0.49173396 -11.125 3.1875 C-10.0625 4.75 -10.0625 4.75 -10.0625 6.75 C-9.4025 6.75 -8.7425 6.75 -8.0625 6.75 C-7.794375 5.96625 -7.52625 5.1825 -7.25 4.375 C-5.54461868 0.60520972 -4.1367302 -0.33769226 0 0 Z " fill="#5D6AA0" transform="translate(34.0625,46.25)"/>
<path d="M0 0 C2.48057628 2.48057628 2.29019005 3.36192464 2.4140625 6.7890625 C2.45273437 7.73007813 2.49140625 8.67109375 2.53125 9.640625 C2.5621875 10.62546875 2.593125 11.6103125 2.625 12.625 C2.66367187 13.61757812 2.70234375 14.61015625 2.7421875 15.6328125 C2.8366314 18.08835385 2.92219875 20.5438841 3 23 C6.58327753 24.00217064 6.58327753 24.00217064 10 23 C10.66 23.33 11.32 23.66 12 24 C12.36923077 31.38461538 12.36923077 31.38461538 10.5 34.5 C10.005 34.995 9.51 35.49 9 36 C8.505 34.02 8.505 34.02 8 32 C5.09926819 31.32198966 5.09926819 31.32198966 2 31 C1.34 31.66 0.68 32.32 0 33 C-3.55555556 35 -3.55555556 35 -6 35 C-6.33 35.66 -6.66 36.32 -7 37 C-7.66 36.67 -8.32 36.34 -9 36 C-7.75023244 39.65316671 -7.32901247 40.78065836 -4 43 C-3.29947539 45.663063 -3.22255182 48.24035737 -3 51 C-3.495 50.360625 -3.99 49.72125 -4.5 49.0625 C-8.521398 45.74484665 -12.63667316 45.94503891 -17.6875 46.0625 C-21.17387315 47.47589452 -22.77089635 50.04794381 -25 53 C-25.66 53.66 -26.32 54.32 -27 55 C-26.98839844 54.28972656 -26.97679688 53.57945313 -26.96484375 52.84765625 C-26.95582031 51.92855469 -26.94679688 51.00945313 -26.9375 50.0625 C-26.92009766 48.68771484 -26.92009766 48.68771484 -26.90234375 47.28515625 C-26.74050951 45.03406673 -26.74050951 45.03406673 -28 44 C-28.0979057 42.50261876 -28.12974864 41.00057108 -28.125 39.5 C-28.12757812 38.6853125 -28.13015625 37.870625 -28.1328125 37.03125 C-28 35 -28 35 -27 34 C-25.5653041 33.90105545 -24.12559603 33.87029265 -22.6875 33.875 C-21.90761719 33.87242188 -21.12773437 33.86984375 -20.32421875 33.8671875 C-18 34 -18 34 -16.01953125 34.5078125 C-13.53680499 35.19731928 -13.53680499 35.19731928 -9 35 C-9 30.71 -9 26.42 -9 22 C-8.030625 21.525625 -7.06125 21.05125 -6.0625 20.5625 C-3.19522563 19.29806053 -3.19522563 19.29806053 -2 18 C-1.77486899 16.66197814 -1.60639193 15.31426977 -1.46484375 13.96484375 C-1.37783203 13.15595703 -1.29082031 12.34707031 -1.20117188 11.51367188 C-1.11416016 10.66353516 -1.02714844 9.81339844 -0.9375 8.9375 C-0.84662109 8.08349609 -0.75574219 7.22949219 -0.66210938 6.34960938 C-0.43749278 4.23348465 -0.21824773 2.11679106 0 0 Z " fill="#DE9136" transform="translate(28,2)"/>
<path d="M0 0 C2.9375 0.8125 2.9375 0.8125 4.9375 3.8125 C5.39125 3.3175 5.845 2.8225 6.3125 2.3125 C7.9375 0.8125 7.9375 0.8125 9.9375 0.8125 C10.35 1.286875 10.7625 1.76125 11.1875 2.25 C13.59538428 4.39989668 15.79158584 4.46295398 18.9375 4.8125 C19.39125 4.1525 19.845 3.4925 20.3125 2.8125 C20.84875 2.1525 21.385 1.4925 21.9375 0.8125 C22.5975 0.8125 23.2575 0.8125 23.9375 0.8125 C23.9375 3.4525 23.9375 6.0925 23.9375 8.8125 C24.9275 9.1425 25.9175 9.4725 26.9375 9.8125 C26.9375 8.4925 26.9375 7.1725 26.9375 5.8125 C28.95795442 6.41433749 30.95861039 7.08556096 32.9375 7.8125 C33.4325 8.8025 33.4325 8.8025 33.9375 9.8125 C33.6075 10.4725 33.2775 11.1325 32.9375 11.8125 C34.4225 11.68875 34.4225 11.68875 35.9375 11.5625 C40.45277326 11.5625 44.32675919 13.12312063 47.9375 15.8125 C49.16796875 17.953125 49.16796875 17.953125 49.9375 19.8125 C48.2875 20.1425 46.6375 20.4725 44.9375 20.8125 C44.9375 22.1325 44.9375 23.4525 44.9375 24.8125 C46.2575 25.1425 47.5775 25.4725 48.9375 25.8125 C45.88486336 26.79370464 43.99013664 26.79370464 40.9375 25.8125 C40.89238281 25.20277344 40.84726563 24.59304687 40.80078125 23.96484375 C40.10265682 21.53944874 40.10265682 21.53944874 37.35546875 20.50390625 C36.28941406 20.13136719 35.22335938 19.75882813 34.125 19.375 C29.16012075 17.63940884 27.11945579 15.94697184 23.9375 11.8125 C20.82522805 11.8125 17.99597848 12.26877049 14.9375 12.8125 C14.9375 13.4725 14.9375 14.1325 14.9375 14.8125 C12.25 15.5625 12.25 15.5625 8.9375 15.8125 C6.0625 14.0625 6.0625 14.0625 3.9375 11.8125 C3.9375 10.8225 3.9375 9.8325 3.9375 8.8125 C-0.40018102 6.65051833 -0.40018102 6.65051833 -5.0625 5.8125 C-8.18724627 7.44723516 -8.18724627 7.44723516 -8.75 9.9375 C-8.853125 10.55625 -8.95625 11.175 -9.0625 11.8125 C-10.3825 11.4825 -11.7025 11.1525 -13.0625 10.8125 C-13.3925 9.1625 -13.7225 7.5125 -14.0625 5.8125 C-13.299375 5.52375 -12.53625 5.235 -11.75 4.9375 C-8.91220692 3.84980987 -8.91220692 3.84980987 -6.0625 1.8125 C-3.0625 -0.1875 -3.0625 -0.1875 0 0 Z " fill="#A32523" transform="translate(33.0625,32.1875)"/>
<path d="M0 0 C0 0.66 0 1.32 0 2 C0.928125 2.0825 1.85625 2.165 2.8125 2.25 C6 3 6 3 7.875 5.0625 C8.431875 6.0215625 8.431875 6.0215625 9 7 C8.01 7 7.02 7 6 7 C6.7187807 14.04207705 6.7187807 14.04207705 8 21 C8.66 21 9.32 21 10 21 C10.3668895 26.50334251 10.3668895 26.50334251 8.78515625 28.64453125 C5.36933716 31.23816194 1.16493665 31.13212035 -3 31 C-5.62313529 30.2723812 -7.58759147 29.31109159 -10 28 C-10.1875 24.625 -10.1875 24.625 -10 21 C-9.01 20.34 -8.02 19.68 -7 19 C-7.66 18.67 -8.32 18.34 -9 18 C-9.02715383 16.25008666 -9.04646551 14.50005055 -9.0625 12.75 C-9.07410156 11.77546875 -9.08570313 10.8009375 -9.09765625 9.796875 C-9.01032187 7.29561823 -8.90393677 5.32737744 -8 3 C-2.96428571 0 -2.96428571 0 0 0 Z " fill="#A8252F" transform="translate(48,49)"/>
<path d="M0 0 C2.45703125 2.06640625 2.45703125 2.06640625 4.8125 4.5625 C5.60269531 5.38878906 6.39289063 6.21507812 7.20703125 7.06640625 C7.79871094 7.70449219 8.39039063 8.34257813 9 9 C8.67 9.99 8.34 10.98 8 12 C5.50360618 12.94954857 3.13390189 13.69455966 0.5625 14.375 C-0.18652588 14.58342529 -0.93555176 14.79185059 -1.70727539 15.0065918 C-3.30471497 15.44987424 -4.90365639 15.88777317 -6.50390625 16.32080078 C-9.02860498 17.00778355 -11.54593709 17.71742351 -14.0625 18.43359375 C-15.68736331 18.89371214 -17.31235963 19.35336113 -18.9375 19.8125 C-19.712146 20.03147949 -20.48679199 20.25045898 -21.28491211 20.47607422 C-26.76723818 22 -26.76723818 22 -29 22 C-29 22.66 -29 23.32 -29 24 C-29.66 24 -30.32 24 -31 24 C-31.66 22.35 -32.32 20.7 -33 19 C-23.50231646 15.80212675 -14.00809188 12.63499719 -4.40625 9.76171875 C-2.02094548 9.07564966 -2.02094548 9.07564966 0 8 C-1.10041919 6.31318262 -1.10041919 6.31318262 -3 5 C-7.04587808 5.45216742 -10.84046187 6.4556358 -14.73046875 7.62890625 C-15.78041016 7.94150391 -16.83035156 8.25410156 -17.91210938 8.57617188 C-20.10752609 9.23728424 -22.30283752 9.8987463 -24.49804688 10.56054688 C-25.54412109 10.87185547 -26.59019531 11.18316406 -27.66796875 11.50390625 C-28.61953857 11.79080322 -29.5711084 12.0777002 -30.55151367 12.37329102 C-33 13 -33 13 -36 13 C-36.33 11.35 -36.66 9.7 -37 8 C-32.12405108 6.54378025 -27.24386567 5.10351709 -22.35693359 3.68457031 C-20.83836262 3.24350205 -19.32040714 2.80030634 -17.80322266 2.35449219 C-15.78867329 1.76603542 -13.77032284 1.19327159 -11.75 0.625 C-10.56921875 0.28726563 -9.3884375 -0.05046875 -8.171875 -0.3984375 C-4.87438069 -1.02382435 -3.1300952 -1.16671857 0 0 Z " fill="#CFFCFC" transform="translate(143,38)"/>
<path d="M0 0 C1.98 0.99 1.98 0.99 4 2 C5.25433458 5.76300374 5.10695422 9.27210909 5.0625 13.1875 C5.05798828 13.93708984 5.05347656 14.68667969 5.04882812 15.45898438 C5.03706354 17.30602383 5.01912865 19.15302213 5 21 C6.32 20.67 7.64 20.34 9 20 C9 21.32 9 22.64 9 24 C10.65 24 12.3 24 14 24 C13.34 22.02 12.68 20.04 12 18 C12.66 17.34 13.32 16.68 14 16 C14.54269531 16.20496094 15.08539063 16.40992187 15.64453125 16.62109375 C16.35996094 16.89050781 17.07539062 17.15992187 17.8125 17.4375 C18.52019531 17.70433594 19.22789063 17.97117187 19.95703125 18.24609375 C21.62672396 18.86225186 23.31157704 19.43719235 25 20 C24.67 21.65 24.34 23.3 24 25 C24.66 25 25.32 25 26 25 C26.33 24.01 26.66 23.02 27 22 C27.335939 23.4577353 27.66866624 24.91621106 28 26.375 C28.185625 27.18710937 28.37125 27.99921875 28.5625 28.8359375 C29 31 29 31 29 33 C27.515 33.495 27.515 33.495 26 34 C24.62804426 35.29355827 23.28817344 36.62298702 22 38 C18.5625 37.1875 18.5625 37.1875 15 36 C14.505 34.515 14.505 34.515 14 33 C12.515 33.495 12.515 33.495 11 34 C11 31.36 11 28.72 11 26 C10.0925 26.20625 9.185 26.4125 8.25 26.625 C5 27 5 27 1 25 C0.67 16.75 0.34 8.5 0 0 Z " fill="#CA3333" transform="translate(29,0)"/>
<path d="M0 0 C0.78761719 0.00257812 1.57523437 0.00515625 2.38671875 0.0078125 C3.16660156 0.00523438 3.94648437 0.00265625 4.75 0 C6.99522247 0.12829843 8.91116381 0.5457621 11.07421875 1.1328125 C12.37359375 1.2565625 12.37359375 1.2565625 13.69921875 1.3828125 C14.48296875 1.6303125 15.26671875 1.8778125 16.07421875 2.1328125 C17.19921875 4.5703125 17.19921875 4.5703125 18.07421875 7.1328125 C19.06421875 7.7928125 20.05421875 8.4528125 21.07421875 9.1328125 C21.77474336 11.7958755 21.85166693 14.37316987 22.07421875 17.1328125 C21.57921875 16.4934375 21.08421875 15.8540625 20.57421875 15.1953125 C16.55282075 11.87765915 12.43754559 12.07785141 7.38671875 12.1953125 C3.9003456 13.60870702 2.3033224 16.18075631 0.07421875 19.1328125 C-0.58578125 19.7928125 -1.24578125 20.4528125 -1.92578125 21.1328125 C-1.91417969 20.42253906 -1.90257813 19.71226563 -1.890625 18.98046875 C-1.88160156 18.06136719 -1.87257812 17.14226563 -1.86328125 16.1953125 C-1.84587891 14.82052734 -1.84587891 14.82052734 -1.828125 13.41796875 C-1.66629076 11.16687923 -1.66629076 11.16687923 -2.92578125 10.1328125 C-3.02368695 8.63543126 -3.05552989 7.13338358 -3.05078125 5.6328125 C-3.05335937 4.818125 -3.0559375 4.0034375 -3.05859375 3.1640625 C-2.88324956 0.48232791 -2.68252351 0.18500162 0 0 Z " fill="#D58318" transform="translate(2.92578125,35.8671875)"/>
<path d="M0 0 C4.05121122 0.17449037 5.91329729 0.90209497 9.2734375 3.33984375 C11.03278519 5.76857288 11.09089377 6.95067321 10.89453125 9.98828125 C9.15149576 18.21540879 9.15149576 18.21540879 5.640625 20.890625 C3.0859375 22.02734375 3.0859375 22.02734375 0.0859375 22.02734375 C0.0859375 21.36734375 0.0859375 20.70734375 0.0859375 20.02734375 C1.0759375 20.02734375 2.0659375 20.02734375 3.0859375 20.02734375 C3.0859375 19.36734375 3.0859375 18.70734375 3.0859375 18.02734375 C4.0759375 17.69734375 5.0659375 17.36734375 6.0859375 17.02734375 C6.0859375 15.37734375 6.0859375 13.72734375 6.0859375 12.02734375 C0.80721176 12.47310281 -3.92489462 13.12670837 -8.9140625 15.02734375 C-9.9040625 15.35734375 -10.8940625 15.68734375 -11.9140625 16.02734375 C-12.5740625 15.36734375 -13.2340625 14.70734375 -13.9140625 14.02734375 C-13.9140625 8.93008401 -11.85906384 6.0343594 -8.515625 2.4453125 C-5.71461633 -0.03460493 -3.58175074 0.05116787 0 0 Z " fill="#1B2D47" transform="translate(14.9140625,46.97265625)"/>
<path d="M0 0 C0 0.66 0 1.32 0 2 C1.32 2.66 2.64 3.32 4 4 C3.75 5.875 3.75 5.875 3 8 C0.9375 9.25 0.9375 9.25 -1 10 C-0.67 10.99 -0.34 11.98 0 13 C0.09467365 15.18584749 0.12988914 17.37460867 0.125 19.5625 C0.12757812 20.71878906 0.13015625 21.87507813 0.1328125 23.06640625 C0 26 0 26 -1 28 C-5.875 27.125 -5.875 27.125 -7 26 C-6.71269945 23.66055264 -6.38063221 21.3260857 -6 19 C-6.99 18.67 -7.98 18.34 -9 18 C-9.02715383 16.25008666 -9.04646551 14.50005055 -9.0625 12.75 C-9.07410156 11.77546875 -9.08570313 10.8009375 -9.09765625 9.796875 C-9.01032187 7.29561823 -8.90393677 5.32737744 -8 3 C-2.96428571 0 -2.96428571 0 0 0 Z " fill="#AC3039" transform="translate(48,49)"/>
<path d="M0 0 C1.0357103 1.30578787 2.04036897 2.63732393 3 4 C-4.18384953 6.75625247 -11.41336155 9.0429272 -18.8359375 11.0703125 C-21.96696079 11.92802641 -21.96696079 11.92802641 -24.73828125 13.140625 C-27.53430299 14.20301668 -29.16768928 13.80923164 -32 13 C-32.33 11.35 -32.66 9.7 -33 8 C-32.47156494 7.83395264 -31.94312988 7.66790527 -31.39868164 7.49682617 C-28.95303738 6.72784456 -26.50776792 5.95767746 -24.0625 5.1875 C-23.23169922 4.92646484 -22.40089844 4.66542969 -21.54492188 4.39648438 C-16.63458175 2.84886745 -11.75223264 1.24806011 -6.89575195 -0.46191406 C-4.22677606 -1.21947013 -2.53642474 -1.11901091 0 0 Z " fill="#526D6D" transform="translate(141,43)"/>
<path d="M0 0 C5.23175837 -0.38281159 8.37802694 0.78145293 13 3 C11.25 8.75 11.25 8.75 9 11 C11.64 11.99 14.28 12.98 17 14 C17 14.33 17 14.66 17 15 C10.4 15 3.8 15 -3 15 C-3 10 -3 10 -0.5 7.1875 C0.7375 6.1046875 0.7375 6.1046875 2 5 C1.34 3.35 0.68 1.7 0 0 Z " fill="#292643" transform="translate(55,79)"/>
<path d="M0 0 C0.25510323 4.63322632 -0.44424789 7.76749965 -2.3125 12 C-2.76625 13.03640625 -3.22 14.0728125 -3.6875 15.140625 C-5.06142599 18.13382091 -6.46288985 21.08758077 -8 24 C-8.33 24 -8.66 24 -9 24 C-9 22.35 -9 20.7 -9 19 C-10.32 18.67 -11.64 18.34 -13 18 C-11.98854494 11.47837929 -10.14943746 6.21339578 -6 1 C-4 0 -4 0 0 0 Z " fill="#36032F" transform="translate(71,6)"/>
<path d="M0 0 C0.99 0.99 1.98 1.98 3 3 C2.01 3.495 2.01 3.495 1 4 C1 4.99 1 5.98 1 7 C0.01 7.495 0.01 7.495 -1 8 C-1.12725095 9.6838556 -1.1758864 11.37388293 -1.1875 13.0625 C-1.60587987 18.5879997 -3.07586376 21.66376889 -6.9453125 25.60546875 C-10.40315633 27.95233234 -12.94287999 27.56942035 -17 27 C-16.71848913 25.68528432 -16.42446661 24.37324233 -16.125 23.0625 C-15.96257813 22.33160156 -15.80015625 21.60070312 -15.6328125 20.84765625 C-15 19 -15 19 -13 18 C-12.175 17.896875 -11.35 17.79375 -10.5 17.6875 C-7.93153117 17.259957 -7.93153117 17.259957 -6.8125 15.375 C-6.16593296 13.48503481 -5.62629761 11.5585765 -5.125 9.625 C-3.90359255 5.68935376 -2.40912231 3.29246715 0 0 Z " fill="#343E55" transform="translate(39,48)"/>
<path d="M0 0 C1.4540625 0.0309375 1.4540625 0.0309375 2.9375 0.0625 C2.9375 1.0525 2.9375 2.0425 2.9375 3.0625 C3.52917969 2.97871094 4.12085937 2.89492188 4.73046875 2.80859375 C9.03689457 2.25360576 12.69302644 1.83023348 16.9375 3.0625 C16.9375 3.7225 16.9375 4.3825 16.9375 5.0625 C15.52148286 5.54358275 14.10465563 6.02228141 12.6875 6.5 C11.89859375 6.76683594 11.1096875 7.03367187 10.296875 7.30859375 C8.18928012 7.98204708 6.08996027 8.55400595 3.9375 9.0625 C3.9375 9.7225 3.9375 10.3825 3.9375 11.0625 C1.9460944 11.44383299 -0.05529077 11.77575582 -2.0625 12.0625 C-2.3925 11.7325 -2.7225 11.4025 -3.0625 11.0625 C-4.58178038 10.99070036 -6.10417482 10.97857993 -7.625 11 C-8.86443359 11.01353516 -8.86443359 11.01353516 -10.12890625 11.02734375 C-10.76699219 11.03894531 -11.40507813 11.05054688 -12.0625 11.0625 C-12.0625 10.4025 -12.0625 9.7425 -12.0625 9.0625 C-10.0825 9.0625 -8.1025 9.0625 -6.0625 9.0625 C-6.0625 8.4025 -6.0625 7.7425 -6.0625 7.0625 C-4.0825 6.7325 -2.1025 6.4025 -0.0625 6.0625 C-1.0525 5.7325 -2.0425 5.4025 -3.0625 5.0625 C-3.8125 3.0625 -3.8125 3.0625 -4.0625 1.0625 C-3.0625 0.0625 -3.0625 0.0625 0 0 Z " fill="#592F67" transform="translate(81.0625,51.9375)"/>
<path d="M0 0 C3.96 1.32 7.92 2.64 12 4 C11.67 5.65 11.34 7.3 11 9 C11.66 9 12.32 9 13 9 C13.042721 10.66611905 13.04063832 12.33382885 13 14 C11.42077594 15.57922406 9.80556126 15.207659 7.625 15.25 C6.83351563 15.27578125 6.04203125 15.3015625 5.2265625 15.328125 C3 15 3 15 1.18359375 13.59765625 C0.79300781 13.07042969 0.40242188 12.54320312 0 12 C0.32248257 10.66400079 0.65772583 9.33106622 1 8 C0.35747635 5.9921136 -0.30741771 3.99117408 -1 2 C-0.67 1.34 -0.34 0.68 0 0 Z " fill="#4A2139" transform="translate(42,16)"/>
<path d="M0 0 C4.12259123 1.4550322 7.57054699 3.27202602 11 6 C12.0625 8.5625 12.0625 8.5625 12 11 C10.5625 12.8125 10.5625 12.8125 9 14 C9.99 15.485 9.99 15.485 11 17 C10.34 17.66 9.68 18.32 9 19 C4.4029922 18.64638402 0.31900631 17.58012426 -4 16 C-2.59070303 12.52867905 -1.09394917 11.11906726 2.125 9.25 C3.21167969 8.60804687 3.21167969 8.60804687 4.3203125 7.953125 C4.87460938 7.63859375 5.42890625 7.3240625 6 7 C5.195625 6.21625 4.39125 5.4325 3.5625 4.625 C1 2 1 2 0 0 Z " fill="#22203A" transform="translate(60,63)"/>
<path d="M0 0 C3 1 3 1 4.75 3.8125 C5.46220666 5.62862699 6.14817418 7.45687039 6.75 9.3125 C8.02448568 11.4248512 8.02448568 11.4248512 11.625 11.75 C12.73875 11.8325 13.8525 11.915 15 12 C15 12.99 15 13.98 15 15 C12.3125 15.75 12.3125 15.75 9 16 C6.125 14.25 6.125 14.25 4 12 C4 11.01 4 10.02 4 9 C-0.33768102 6.83801833 -0.33768102 6.83801833 -5 6 C-8.12474627 7.63473516 -8.12474627 7.63473516 -8.6875 10.125 C-8.790625 10.74375 -8.89375 11.3625 -9 12 C-10.32 11.67 -11.64 11.34 -13 11 C-13.33 9.35 -13.66 7.7 -14 6 C-13.236875 5.71125 -12.47375 5.4225 -11.6875 5.125 C-8.84970692 4.03730987 -8.84970692 4.03730987 -6 2 C-3 0 -3 0 0 0 Z " fill="#3C294C" transform="translate(33,32)"/>
<path d="M0 0 C0.928125 0.20625 1.85625 0.4125 2.8125 0.625 C1.73848892 3.54017292 1.03439824 5.40310176 -1.1875 7.625 C-1.86690467 10.05215206 -1.86690467 10.05215206 -2.3125 12.75 C-2.48007812 13.66007812 -2.64765625 14.57015625 -2.8203125 15.5078125 C-2.94148438 16.20648438 -3.06265625 16.90515625 -3.1875 17.625 C-4.5075 17.625 -5.8275 17.625 -7.1875 17.625 C-7.1875 16.965 -7.1875 16.305 -7.1875 15.625 C-7.8475 15.625 -8.5075 15.625 -9.1875 15.625 C-9.57099307 10.51175913 -8.64525975 6.11572152 -6.1875 1.625 C-3.1875 -0.375 -3.1875 -0.375 0 0 Z " fill="#364B6A" transform="translate(33.1875,47.375)"/>
<path d="M0 0 C2.97 0.495 2.97 0.495 6 1 C5.67 2.32 5.34 3.64 5 5 C8.76333425 7.09074125 12.14819798 7.86645659 16.4375 8.17578125 C17.7678125 8.27439453 17.7678125 8.27439453 19.125 8.375 C19.97320312 8.42398438 20.82140625 8.47296875 21.6953125 8.5234375 C24.41145878 9.08508131 25.36187352 9.78932446 27 12 C27.1875 14.6875 27.1875 14.6875 27 17 C26.34 17.33 25.68 17.66 25 18 C25 17.34 25 16.68 25 16 C24.01 15.67 23.02 15.34 22 15 C22 14.34 22 13.68 22 13 C19.03 12.505 19.03 12.505 16 12 C16 11.34 16 10.68 16 10 C15.401875 10.33 14.80375 10.66 14.1875 11 C12 12 12 12 9 12 C8.67 11.34 8.34 10.68 8 10 C6.5459375 9.4121875 6.5459375 9.4121875 5.0625 8.8125 C2 7 2 7 0.625 3.3125 C0.41875 2.219375 0.2125 1.12625 0 0 Z " fill="#27131C" transform="translate(32,39)"/>
<path d="M0 0 C0.79148437 -0.02578125 1.58296875 -0.0515625 2.3984375 -0.078125 C5.09524878 0.31929982 5.93229015 1.17506535 7.625 3.25 C6.34437515 4.9574998 5.00732443 6.62373596 3.625 8.25 C2.965 8.25 2.305 8.25 1.625 8.25 C1.295 9.24 0.965 10.23 0.625 11.25 C-1.3125 12.0625 -1.3125 12.0625 -3.375 12.25 C-5.375 10.25 -5.375 10.25 -5.60546875 8.12109375 C-5.58419922 6.91646484 -5.58419922 6.91646484 -5.5625 5.6875 C-5.55605469 4.88183594 -5.54960938 4.07617188 -5.54296875 3.24609375 C-5.23052004 -0.46695955 -3.28722789 0.06382967 0 0 Z " fill="#F1FBBE" transform="translate(5.375,35.75)"/>
<path d="M0 0 C0.66 0.33 1.32 0.66 2 1 C2 2.32 2 3.64 2 5 C2.66 5 3.32 5 4 5 C4.3668895 10.50334251 4.3668895 10.50334251 2.78515625 12.64453125 C-0.63066284 15.23816194 -4.83506335 15.13212035 -9 15 C-11.62313529 14.2723812 -13.58759147 13.31109159 -16 12 C-16 9.69 -16 7.38 -16 5 C-14.68 4.34 -13.36 3.68 -12 3 C-12 5.31 -12 7.62 -12 10 C-9.47524538 11.26237731 -7.68799534 11.09856404 -4.875 11.0625 C-3.26625 11.041875 -1.6575 11.02125 0 11 C0 7.37 0 3.74 0 0 Z " fill="#952A49" transform="translate(54,65)"/>
<path d="M0 0 C4.09454893 0.18611586 5.7377086 0.77192052 8.875 3.5 C11 6 11 6 11 7 C9.35 7.33 7.7 7.66 6 8 C6 9.32 6 10.64 6 12 C7.32 12.33 8.64 12.66 10 13 C6.94736336 13.98120464 5.05263664 13.98120464 2 13 C1.87625 12.360625 1.7525 11.72125 1.625 11.0625 C1.41875 10.381875 1.2125 9.70125 1 9 C0.34 8.67 -0.32 8.34 -1 8 C-1.04241723 5.66705225 -1.04092937 3.33297433 -1 1 C-0.67 0.67 -0.34 0.34 0 0 Z " fill="#1C1B36" transform="translate(72,45)"/>
<path d="M0 0 C1.98 0.99 1.98 0.99 4 2 C5.25433458 5.76300374 5.10695422 9.27210909 5.0625 13.1875 C5.05798828 13.93708984 5.05347656 14.68667969 5.04882812 15.45898438 C5.03706354 17.30602383 5.01912865 19.15302213 5 21 C5.66 21 6.32 21 7 21 C6.67 22.32 6.34 23.64 6 25 C5.67 24.67 5.34 24.34 5 24 C4.67 24.66 4.34 25.32 4 26 C3.01 25.67 2.02 25.34 1 25 C0.67 16.75 0.34 8.5 0 0 Z " fill="#BA4809" transform="translate(29,0)"/>
<path d="M0 0 C3.3 0.99 6.6 1.98 10 3 C10.33 4.65 10.66 6.3 11 8 C10.22914062 7.9278125 9.45828125 7.855625 8.6640625 7.78125 C7.66117188 7.6884375 6.65828125 7.595625 5.625 7.5 C4.12839844 7.36078125 4.12839844 7.36078125 2.6015625 7.21875 C0.10296264 6.97207053 0.10296264 6.97207053 -2 7 C-1.34 9.31 -0.68 11.62 0 14 C-2.97 13.505 -2.97 13.505 -6 13 C-5.49357808 8.64477147 -4.61588503 5.55760365 -2 2 C-1.34 2 -0.68 2 0 2 C0 1.34 0 0.68 0 0 Z " fill="#63708F" transform="translate(44,11)"/>
<path d="M0 0 C5.75 0.75 5.75 0.75 8 3 C7.38125 3.804375 6.7625 4.60875 6.125 5.4375 C3.85467503 8.78324206 3.19808823 11.99221252 2.58984375 15.94921875 C1.88152038 18.41193244 1.0178424 19.44478488 -1 21 C-2.66617115 21.04063832 -4.33388095 21.042721 -6 21 C-6.66 21.66 -7.32 22.32 -8 23 C-9.09658936 19.71023192 -8.79953138 18.28696233 -8 15 C-7.67 15.66 -7.34 16.32 -7 17 C-6.34 17 -5.68 17 -5 17 C-5 17.66 -5 18.32 -5 19 C-3.68 19 -2.36 19 -1 19 C-0.97873047 18.03900391 -0.97873047 18.03900391 -0.95703125 17.05859375 C-0.59343119 10.46465756 0.72950643 7.03699241 5 2 C3.35 1.67 1.7 1.34 0 1 C0 0.67 0 0.34 0 0 Z " fill="#697EA6" transform="translate(31,46)"/>
<path d="M0 0 C2.375 0.1875 2.375 0.1875 5 1 C6.125 3.4375 6.125 3.4375 7 6 C7.99 6.66 8.98 7.32 10 8 C10.70052461 10.663063 10.77744818 13.24035737 11 16 C10.46890625 15.35546875 9.9378125 14.7109375 9.390625 14.046875 C6.39521524 11.48217775 4.64317797 11.41926861 0.75 11.25 C-0.32765625 11.19328125 -1.4053125 11.1365625 -2.515625 11.078125 C-3.74539063 11.03945313 -3.74539063 11.03945313 -5 11 C-2.41212273 8.41212273 -0.57992139 8.37290848 3 8 C3.66 8.33 4.32 8.66 5 9 C5 8.34 5 7.68 5 7 C3.68 6.67 2.36 6.34 1 6 C0.67 4.02 0.34 2.04 0 0 Z " fill="#B7641C" transform="translate(14,37)"/>
<path d="M0 0 C2.5 2.5625 2.5 2.5625 4 5 C3.01 5.33 2.02 5.66 1 6 C0.525625 5.319375 0.05125 4.63875 -0.4375 3.9375 C-3.30345662 1.77055719 -4.04098856 1.68694831 -7.5 1.875 C-11.16627044 2.47394517 -11.89750591 2.89506557 -14.625 5.6875 C-16.16701521 9.40235483 -16.0904671 11.18336514 -15 15 C-16.32 14.67 -17.64 14.34 -19 14 C-19.98629017 10.86180401 -20.21925401 9.47312707 -18.8125 6.4375 C-14.40214216 0.50632911 -14.40214216 0.50632911 -10.75 -0.8125 C-7.04165218 -1.0653419 -3.57477847 -1.12691346 0 0 Z " fill="#240415" transform="translate(21,48)"/>
<path d="M0 0 C-0.66 1.32 -1.32 2.64 -2 4 C-3.32 4 -4.64 4 -6 4 C-6.33 6.31 -6.66 8.62 -7 11 C-10.3 11 -13.6 11 -17 11 C-17 9.35 -17 7.7 -17 6 C-15 6 -13 6 -11 6 C-9.98594743 4.67732273 -8.98731742 3.34275169 -8 2 C-4.95502447 0.03549966 -3.8150093 0 0 0 Z " fill="#43567A" transform="translate(28,83)"/>
<path d="M0 0 C5.23175837 -0.38281159 8.37802694 0.78145293 13 3 C11.25 8.75 11.25 8.75 9 11 C7.68 11 6.36 11 5 11 C4.731875 9.9275 4.46375 8.855 4.1875 7.75 C3.13772173 4.43491072 2.25387672 2.56122354 0 0 Z " fill="#312741" transform="translate(55,79)"/>
<path d="M0 0 C3 1 3 1 4.1875 2.6875 C5.19313465 5.54969093 5.13689641 7.98827908 5 11 C5.99 11.33 6.98 11.66 8 12 C8 13.98 8 15.96 8 18 C7.34 18 6.68 18 6 18 C5.938125 17.071875 5.938125 17.071875 5.875 16.125 C5.58625 15.42375 5.2975 14.7225 5 14 C2.00384054 12.6954344 2.00384054 12.6954344 -1 12 C-0.67 10.35 -0.34 8.7 0 7 C-1.65 6.67 -3.3 6.34 -5 6 C-5 5.67 -5 5.34 -5 5 C-3.35 5 -1.7 5 0 5 C0 3.35 0 1.7 0 0 Z " fill="#DD9A53" transform="translate(54,13)"/>
<path d="M0 0 C1.87988281 0.29541016 1.87988281 0.29541016 4 1 C5.4500783 3.46984881 6.62021639 5.76631509 7.75 8.375 C8.22373047 9.40367188 8.22373047 9.40367188 8.70703125 10.453125 C10.05486384 13.45219839 11 15.67828502 11 19 C9.171875 18.83203125 9.171875 18.83203125 7 18 C5.515625 15.63671875 5.515625 15.63671875 4.25 12.6875 C3.82203125 11.72199219 3.3940625 10.75648437 2.953125 9.76171875 C2 7 2 7 2 3 C1.34 3 0.68 3 0 3 C0 2.01 0 1.02 0 0 Z " fill="#45557B" transform="translate(101,44)"/>
<path d="M0 0 C6.75 0.75 6.75 0.75 9 3 C8.34 4.65 7.68 6.3 7 8 C7.99 8 8.98 8 10 8 C9.67 8.99 9.34 9.98 9 11 C7.35 11.33 5.7 11.66 4 12 C3.34 11.01 2.68 10.02 2 9 C2.66 9 3.32 9 4 9 C4 8.34 4 7.68 4 7 C3.01 6.67 2.02 6.34 1 6 C0.67 4.02 0.34 2.04 0 0 Z " fill="#463A5C" transform="translate(44,18)"/>
<path d="M0 0 C4.83256305 0.41421969 6.82679218 2.46413986 10 6 C7.03 7.65 4.06 9.3 1 11 C1 9.35 1 7.7 1 6 C0.34 6 -0.32 6 -1 6 C-0.67 4.02 -0.34 2.04 0 0 Z " fill="#322E55" transform="translate(57,64)"/>
<path d="M0 0 C3.45201639 1.47721422 5.64961936 3.43794001 8.25 6.125 C8.95640625 6.84945312 9.6628125 7.57390625 10.390625 8.3203125 C11.18726563 9.15175781 11.18726563 9.15175781 12 10 C8.14702908 11.28432364 6.68711349 10.58019149 3 9 C0.5625 7.1875 0.5625 7.1875 -1 5 C-0.75 2.25 -0.75 2.25 0 0 Z " fill="#FAFEFE" transform="translate(140,37)"/>
<path d="M0 0 C1.32 0 2.64 0 4 0 C4 1.65 4 3.3 4 5 C3.01 5 2.02 5 1 5 C1.99 5.66 2.98 6.32 4 7 C3.34 9.97 2.68 12.94 2 16 C-0.97 15.505 -0.97 15.505 -4 15 C-3.01 14.67 -2.02 14.34 -1 14 C-1.01160156 13.07316406 -1.02320313 12.14632812 -1.03515625 11.19140625 C-1.04417969 9.99386719 -1.05320312 8.79632813 -1.0625 7.5625 C-1.07410156 6.36753906 -1.08570313 5.17257813 -1.09765625 3.94140625 C-1 1 -1 1 0 0 Z " fill="#DF9122" transform="translate(20,23)"/>
<path d="M0 0 C3.465 1.485 3.465 1.485 7 3 C6.62956667 4.94251626 6.22763135 6.87904293 5.8125 8.8125 C5.59207031 9.89144531 5.37164062 10.97039063 5.14453125 12.08203125 C4 15 4 15 1.57421875 16.88671875 C-1 18 -1 18 -4 18 C-4 17.34 -4 16.68 -4 16 C-3.01 16 -2.02 16 -1 16 C-1 15.34 -1 14.68 -1 14 C-0.01 13.67 0.98 13.34 2 13 C2 11.35 2 9.7 2 8 C1.34 7.67 0.68 7.34 0 7 C0 4.69 0 2.38 0 0 Z " fill="#1A1F32" transform="translate(19,51)"/>
<path d="M0 0 C0.0270043 1.45823212 0.04639787 2.91660675 0.0625 4.375 C0.07410156 5.18710938 0.08570313 5.99921875 0.09765625 6.8359375 C0 9 0 9 -1 11 C-5.875 10.125 -5.875 10.125 -7 9 C-6.71269945 6.66055264 -6.38063221 4.3260857 -6 2 C-1.125 0 -1.125 0 0 0 Z " fill="#BF2D3E" transform="translate(48,66)"/>
<path d="M0 0 C0.33 0.99 0.66 1.98 1 3 C2.97746603 3.73080266 4.98072489 4.39421747 7 5 C7.99 5.66 8.98 6.32 10 7 C9.67 9.31 9.34 11.62 9 14 C8.236875 13.195625 7.47375 12.39125 6.6875 11.5625 C4.20569102 8.83200976 4.20569102 8.83200976 1 8 C-0.25 5.625 -0.25 5.625 -1 3 C-0.67 2.01 -0.34 1.02 0 0 Z " fill="#311840" transform="translate(59,53)"/>
<path d="M0 0 C2.00948183 0.01778303 4.01668765 0.16786374 6.01953125 0.33203125 C5.35953125 3.30203125 4.69953125 6.27203125 4.01953125 9.33203125 C-0.43546875 7.35203125 -0.43546875 7.35203125 -4.98046875 5.33203125 C-3.05235036 0.51173527 -3.05235036 0.51173527 0 0 Z " fill="#696EA5" transform="translate(66.98046875,43.66796875)"/>
<path d="M0 0 C0.99 0.33 1.98 0.66 3 1 C3.70211894 2.65204456 4.36971413 4.31923769 5 6 C5.66 6.33 6.32 6.66 7 7 C6.0925 7.061875 5.185 7.12375 4.25 7.1875 C0.26215824 8.18446044 -0.76592111 9.64888166 -3 13 C-3.99 12.34 -4.98 11.68 -6 11 C-5.67 10.01 -5.34 9.02 -5 8 C-4.01 7.67 -3.02 7.34 -2 7 C-0.77030122 3.48809191 -0.77030122 3.48809191 0 0 Z " fill="#313B5A" transform="translate(19,78)"/>
<path d="M0 0 C2 2 2 2 2 6 C2.66 6 3.32 6 4 6 C4 6.66 4 7.32 4 8 C4.5775 7.649375 5.155 7.29875 5.75 6.9375 C8.35801776 5.85082593 9.39417629 6.06934867 12 7 C12 7.99 12 8.98 12 10 C8.3558226 12.4294516 6.28758728 12.16179575 2 12 C0.86235649 7.73383684 0 4.43513689 0 0 Z " fill="#55537A" transform="translate(11,61)"/>
<path d="M0 0 C0.66 0.33 1.32 0.66 2 1 C2 1.99 2 2.98 2 4 C0.02 4.66 -1.96 5.32 -4 6 C-3.67 6.66 -3.34 7.32 -3 8 C-3.60328125 7.9278125 -4.2065625 7.855625 -4.828125 7.78125 C-5.62734375 7.6884375 -6.4265625 7.595625 -7.25 7.5 C-8.03890625 7.4071875 -8.8278125 7.314375 -9.640625 7.21875 C-12.26890397 6.93845381 -12.26890397 6.93845381 -16 7 C-16 6.34 -16 5.68 -16 5 C-14.02 5 -12.04 5 -10 5 C-10 4.34 -10 3.68 -10 3 C-8.906875 2.690625 -7.81375 2.38125 -6.6875 2.0625 C-4.44592006 1.41662103 -2.2130649 0.7376883 0 0 Z " fill="#806F79" transform="translate(85,56)"/>
<path d="M0 0 C2.02045442 0.60183749 4.02111039 1.27306096 6 2 C6.33 2.66 6.66 3.32 7 4 C5.35 6.31 3.7 8.62 2 11 C0.8274869 10.04882866 -0.33787015 9.08882991 -1.5 8.125 C-2.1496875 7.59132813 -2.799375 7.05765625 -3.46875 6.5078125 C-3.9740625 6.01023437 -4.479375 5.51265625 -5 5 C-5 4.34 -5 3.68 -5 3 C-2.525 3.495 -2.525 3.495 0 4 C0 2.68 0 1.36 0 0 Z " fill="#3E1F2D" transform="translate(60,38)"/>
<path d="M0 0 C0.66 0 1.32 0 2 0 C2.63957492 5.88408928 1.09338048 9.32943195 -1.6875 14.48828125 C-3.468419 17.89640898 -4.72493381 21.37612766 -6 25 C-6.99 24.67 -7.98 24.34 -9 24 C-8.4225 22.88625 -7.845 21.7725 -7.25 20.625 C-3.96960223 14.04085644 -0.77773923 7.38852268 0 0 Z " fill="#BC4529" transform="translate(71,6)"/>
<path d="M0 0 C0.99 0.33 1.98 0.66 3 1 C3.33 5.95 3.66 10.9 4 16 C2.68 16 1.36 16 0 16 C-1.2162817 11.81058524 -0.81782293 8.23550181 -0.25390625 3.98828125 C0.04222423 2.00342311 0.04222423 2.00342311 0 0 Z " fill="#D45820" transform="translate(57,26)"/>
<path d="M0 0 C0.99 0.99 1.98 1.98 3 3 C2.01 3.495 2.01 3.495 1 4 C1 4.99 1 5.98 1 7 C0.01 7.495 0.01 7.495 -1 8 C-1.73075648 10.3140622 -2.40138258 12.64828869 -3 15 C-3.99 15 -4.98 15 -6 15 C-5.65021857 8.35415281 -4.19522328 5.16335173 0 0 Z " fill="#3C4F6D" transform="translate(39,48)"/>
<path d="M0 0 C1 1 1 1 1.0625 3.5625 C1.041875 4.366875 1.02125 5.17125 1 6 C0.360625 6.12375 -0.27875 6.2475 -0.9375 6.375 C-1.9584375 6.684375 -1.9584375 6.684375 -3 7 C-3.33 7.66 -3.66 8.32 -4 9 C-4.0825 8.05125 -4.165 7.1025 -4.25 6.125 C-4.65074923 2.89538209 -4.65074923 2.89538209 -7.0625 1.625 C-7.701875 1.41875 -8.34125 1.2125 -9 1 C-5.92954549 0.0902357 -3.20049657 -0.17299981 0 0 Z " fill="#596495" transform="translate(21,58)"/>
<path d="M0 0 C0.33 0.66 0.66 1.32 1 2 C1.66 2 2.32 2 3 2 C5.15294651 7.28830549 7.27933894 12.55123997 9 18 C7.10644531 17.72485352 7.10644531 17.72485352 5 17 C3.71498368 14.28555039 2.69671 11.76555462 1.75 8.9375 C1.481875 8.17888672 1.21375 7.42027344 0.9375 6.63867188 C0.27728033 4.76411958 -0.36325109 2.88265428 -1 1 C-0.67 0.67 -0.34 0.34 0 0 Z " fill="#543063" transform="translate(100,45)"/>
<path d="M0 0 C2.05078125 0.03255208 4.1015625 0.06510417 6.15234375 0.09765625 C4.52734375 5.84765625 4.52734375 5.84765625 1.15234375 8.09765625 C0.16234375 8.09765625 -0.82765625 8.09765625 -1.84765625 8.09765625 C-2.22828846 5.77157055 -2.5603557 3.43710361 -2.84765625 1.09765625 C-1.84765625 0.09765625 -1.84765625 0.09765625 0 0 Z " fill="#F5FEED" transform="translate(2.84765625,35.90234375)"/>
<path d="M0 0 C2.47430256 2.47430256 2.26006698 3.92975776 2.2734375 7.3125 C2.26570313 7.993125 2.25796875 8.67375 2.25 9.375 C2.25773437 10.04789063 2.26546875 10.72078125 2.2734375 11.4140625 C2.25889608 15.1075836 2.02663956 17.86353401 0 21 C-2.16235504 17.75646744 -2.21879428 17.38055519 -1.7578125 13.76953125 C-1.66113281 12.96708984 -1.56445312 12.16464844 -1.46484375 11.33789062 C-1.35269531 10.50451172 -1.24054687 9.67113281 -1.125 8.8125 C-1.02058594 7.96751953 -0.91617187 7.12253906 -0.80859375 6.25195312 C-0.54940443 4.16665725 -0.27605197 2.08313064 0 0 Z " fill="#FEEF27" transform="translate(28,2)"/>
<path d="M0 0 C0.66 0 1.32 0 2 0 C1.75 1.8125 1.75 1.8125 1 4 C-1 5.5 -1 5.5 -3 7 C-3.79623822 9.09415804 -3.79623822 9.09415804 -4 11 C-5.32 10.67 -6.64 10.34 -8 10 C-8.33 8.35 -8.66 6.7 -9 5 C-8.236875 4.71125 -7.47375 4.4225 -6.6875 4.125 C-4.15280222 3.06396372 -1.96932255 1.96932255 0 0 Z " fill="#432B1F" transform="translate(28,33)"/>
<path d="M0 0 C0 0.66 0 1.32 0 2 C1.32 2.66 2.64 3.32 4 4 C3.6875 5.875 3.6875 5.875 3 8 C2.01 8.66 1.02 9.32 0 10 C-0.33 8.68 -0.66 7.36 -1 6 C-2.32 6 -3.64 6 -5 6 C-4.625 3.5625 -4.625 3.5625 -4 1 C-2 0 -2 0 0 0 Z " fill="#FCA132" transform="translate(48,49)"/>
<path d="M0 0 C6.75 1.75 6.75 1.75 9 4 C9.125 6.625 9.125 6.625 9 9 C8.01 9.495 8.01 9.495 7 10 C7 9.34 7 8.68 7 8 C6.01 7.67 5.02 7.34 4 7 C4 6.34 4 5.68 4 5 C2.68 4.34 1.36 3.68 0 3 C0 2.01 0 1.02 0 0 Z " fill="#2F062F" transform="translate(50,47)"/>
<path d="M0 0 C1.4540625 0.0309375 1.4540625 0.0309375 2.9375 0.0625 C2.9375 1.0525 2.9375 2.0425 2.9375 3.0625 C4.9175 2.7325 6.8975 2.4025 8.9375 2.0625 C8.6075 3.0525 8.2775 4.0425 7.9375 5.0625 C4.3075 5.0625 0.6775 5.0625 -3.0625 5.0625 C-3.3925 3.7425 -3.7225 2.4225 -4.0625 1.0625 C-3.0625 0.0625 -3.0625 0.0625 0 0 Z " fill="#594F7C" transform="translate(81.0625,51.9375)"/>
<path d="M0 0 C0.66 0.33 1.32 0.66 2 1 C1.67 3.97 1.34 6.94 1 10 C-0.65 10.33 -2.3 10.66 -4 11 C-4.33 9.35 -4.66 7.7 -5 6 C-4.34 6 -3.68 6 -3 6 C-3 4.68 -3 3.36 -3 2 C-2.01 2 -1.02 2 0 2 C0 1.34 0 0.68 0 0 Z " fill="#63407F" transform="translate(96,44)"/>
<path d="M0 0 C0.99 0.33 1.98 0.66 3 1 C3 1.66 3 2.32 3 3 C5.31 3.33 7.62 3.66 10 4 C10 4.99 10 5.98 10 7 C7.3125 7.75 7.3125 7.75 4 8 C1.125 6.0625 1.125 6.0625 -1 4 C-0.67 2.68 -0.34 1.36 0 0 Z " fill="#65567E" transform="translate(38,40)"/>
<path d="M0 0 C0.66 0 1.32 0 2 0 C2.36923077 5.53846154 2.36923077 5.53846154 0.5 7.875 C0.005 8.24625 -0.49 8.6175 -1 9 C-1.99 8.67 -2.98 8.34 -4 8 C-4.99 8 -5.98 8 -7 8 C-7.33 6.68 -7.66 5.36 -8 4 C-7.236875 4.0825 -6.47375 4.165 -5.6875 4.25 C-2.85583656 4.30342071 -2.85583656 4.30342071 -1.3125 2 C-0.879375 1.34 -0.44625 0.68 0 0 Z " fill="#A61D20" transform="translate(55,33)"/>
<path d="M0 0 C3.37462715 0.54723683 5.08235 1.0549 8 3 C8 3.66 8 4.32 8 5 C6.02 5.66 4.04 6.32 2 7 C0.4375 5.1875 0.4375 5.1875 -1 3 C-0.67 2.01 -0.34 1.02 0 0 Z " fill="#272E49" transform="translate(73,45)"/>
<path d="M0 0 C0.66 0.33 1.32 0.66 2 1 C2 2.98 2 4.96 2 7 C2.99 7.33 3.98 7.66 5 8 C3.02 8 1.04 8 -1 8 C-1 7.34 -1 6.68 -1 6 C-1.99 6 -2.98 6 -4 6 C-3.6875 4.125 -3.6875 4.125 -3 2 C-2.01 1.34 -1.02 0.68 0 0 Z " fill="#211631" transform="translate(58,83)"/>
<path d="M0 0 C1.67542976 0.28604898 3.34385343 0.61781233 5 1 C3.55922954 4.36179774 1.75249979 6.59156268 -1 9 C-1.66 9 -2.32 9 -3 9 C-2.69181644 7.68647977 -2.37832335 6.37420428 -2.0625 5.0625 C-1.88847656 4.33160156 -1.71445312 3.60070312 -1.53515625 2.84765625 C-1 1 -1 1 0 0 Z " fill="#363E68" transform="translate(25,66)"/>
<path d="M0 0 C0.66 0 1.32 0 2 0 C2.103125 0.825 2.20625 1.65 2.3125 2.5 C2.87154868 5.34606602 3.56145707 7.58871448 4.625 10.25 C5.07875 11.4875 5.5325 12.725 6 14 C5.67 14.66 5.34 15.32 5 16 C3.9615789 14.28133783 2.94485365 12.54955402 1.9375 10.8125 C1.36902344 9.84957031 0.80054687 8.88664062 0.21484375 7.89453125 C-1.13815174 4.67083459 -1.04769518 3.27479579 0 0 Z " fill="#67547C" transform="translate(98,44)"/>
<path d="M0 0 C1.98 0.99 1.98 0.99 4 2 C4.75 4.625 4.75 4.625 5 7 C4.34 7 3.68 7 3 7 C2.67 10.3 2.34 13.6 2 17 C1.67 17 1.34 17 1 17 C0.67 11.39 0.34 5.78 0 0 Z " fill="#D77817" transform="translate(29,0)"/>
<path d="M0 0 C2.56917922 0.47577393 4.11891123 1.08034543 6.3125 2.5625 C9.69938617 4.37409028 12.21537938 4.22262474 16 4 C16 4.66 16 5.32 16 6 C11.07255174 7.20181665 7.70219344 6.95185388 3 5 C1.0625 2.375 1.0625 2.375 0 0 Z " fill="#92232D" transform="translate(38,38)"/>
<path d="M0 0 C0.33 1.65 0.66 3.3 1 5 C-5.75 3.375 -5.75 3.375 -8 0 C-5.13822943 -1.43088528 -3.06624227 -0.59991697 0 0 Z " fill="#564E66" transform="translate(54,14)"/>
<path d="M0 0 C2.12046792 3.53411321 2.53199289 6.94393835 3 11 C-0.96 10.67 -4.92 10.34 -9 10 C-9 9.67 -9 9.34 -9 9 C-6.36 8.67 -3.72 8.34 -1 8 C-0.67 5.36 -0.34 2.72 0 0 Z " fill="#9E2E2F" transform="translate(55,22)"/>
<path d="M0 0 C0.36923077 7.38461538 0.36923077 7.38461538 -1.5 10.5 C-1.995 10.995 -2.49 11.49 -3 12 C-4.35111663 4.19354839 -4.35111663 4.19354839 -3 1 C-1 0 -1 0 0 0 Z " fill="#FDBC47" transform="translate(40,26)"/>
<path d="M0 0 C0.99 0.495 0.99 0.495 2 1 C2 2.32 2 3.64 2 5 C2.66 5 3.32 5 4 5 C4.36923077 10.53846154 4.36923077 10.53846154 2.5 12.875 C1.7575 13.431875 1.7575 13.431875 1 14 C-0.38226016 11.23547967 -0.09525387 8.9538637 -0.0625 5.875 C-0.05347656 4.77929688 -0.04445312 3.68359375 -0.03515625 2.5546875 C-0.02355469 1.71164063 -0.01195312 0.86859375 0 0 Z " fill="#6E2D4E" transform="translate(54,65)"/>
<path d="M0 0 C1.2065625 0.0309375 1.2065625 0.0309375 2.4375 0.0625 C0.4575 3.0325 0.4575 3.0325 -1.5625 6.0625 C-2.8825 5.7325 -4.2025 5.4025 -5.5625 5.0625 C-3.15007962 0.07683121 -3.15007962 0.07683121 0 0 Z " fill="#302F54" transform="translate(31.5625,68.9375)"/>
<path d="M0 0 C0.66 0.33 1.32 0.66 2 1 C2.66666667 3.33333333 3.33333333 5.66666667 4 8 C4.66 8.33 5.32 8.66 6 9 C5.67 10.32 5.34 11.64 5 13 C4.34 13 3.68 13 3 13 C2.30329584 11.21189234 1.61788811 9.41937948 0.9375 7.625 C0.55464844 6.62726562 0.17179687 5.62953125 -0.22265625 4.6015625 C-1 2 -1 2 0 0 Z " fill="#2F2E51" transform="translate(42,16)"/>
<path d="M0 0 C0.99 0 1.98 0 3 0 C3 1.32 3 2.64 3 4 C4.32 4 5.64 4 7 4 C6.67 4.99 6.34 5.98 6 7 C5.4225 6.835 4.845 6.67 4.25 6.5 C1.73335631 5.85537969 1.73335631 5.85537969 -2 6 C-1.67 5.01 -1.34 4.02 -1 3 C-0.67 3.33 -0.34 3.66 0 4 C0 2.68 0 1.36 0 0 Z " fill="#993132" transform="translate(35,20)"/>
<path d="M0 0 C0.99 0 1.98 0 3 0 C3 2.97 3 5.94 3 9 C2.01 9.495 2.01 9.495 1 10 C1 8.35 1 6.7 1 5 C0.34 5 -0.32 5 -1 5 C-0.67 3.35 -0.34 1.7 0 0 Z " fill="#3B356B" transform="translate(57,65)"/>
<path d="M0 0 C2.97 0.495 2.97 0.495 6 1 C5.67 2.32 5.34 3.64 5 5 C5.99 5.33 6.98 5.66 8 6 C8 6.33 8 6.66 8 7 C6.02 7 4.04 7 2 7 C1.34 4.69 0.68 2.38 0 0 Z " fill="#241D3E" transform="translate(32,39)"/>
<path d="M0 0 C0.33 0 0.66 0 1 0 C1.33 1.65 1.66 3.3 2 5 C2.99 5.33 3.98 5.66 5 6 C5 6.66 5 7.32 5 8 C3.7625 8.144375 2.525 8.28875 1.25 8.4375 C-1.56504499 8.78688502 -4.2701497 9.20379366 -7 10 C-5.71034824 8.62437146 -4.37310707 7.29233607 -3 6 C-2.34 6 -1.68 6 -1 6 C-0.67 4.02 -0.34 2.04 0 0 Z " fill="#F0A329" transform="translate(14,38)"/>
<path d="M0 0 C2.475 0.495 2.475 0.495 5 1 C5.66 2.98 6.32 4.96 7 7 C5.35 7 3.7 7 2 7 C1.34 4.69 0.68 2.38 0 0 Z " fill="#A05F0F" transform="translate(14,37)"/>
<path d="M0 0 C1.65 0 3.3 0 5 0 C5 2.62113708 4.68707555 4.50935112 4 7 C3.01 6.67 2.02 6.34 1 6 C0.67 4.02 0.34 2.04 0 0 Z " fill="#525083" transform="translate(44,18)"/>
<path d="M0 0 C0.99 0.33 1.98 0.66 3 1 C3.70211894 2.65204456 4.36971413 4.31923769 5 6 C5.66 6.33 6.32 6.66 7 7 C5.02 7 3.04 7 1 7 C0.67 4.69 0.34 2.38 0 0 Z " fill="#2C344E" transform="translate(19,78)"/>
<path d="M0 0 C2.64 0.66 5.28 1.32 8 2 C7.67 3.32 7.34 4.64 7 6 C4.36 4.68 1.72 3.36 -1 2 C-0.67 1.34 -0.34 0.68 0 0 Z " fill="#5B5477" transform="translate(63,47)"/>
<path d="M0 0 C1.65 0.33 3.3 0.66 5 1 C3.98305687 4.05082939 3.27855788 4.90372675 1 7 C0.34 7.66 -0.32 8.32 -1 9 C-0.67 6.03 -0.34 3.06 0 0 Z " fill="#AF6B1E" transform="translate(2,48)"/>
<path d="M0 0 C1.32 0.33 2.64 0.66 4 1 C4.33 4.63 4.66 8.26 5 12 C2.87491756 8.81237635 2.4979837 6.73487777 2 3 C1.34 3 0.68 3 0 3 C0 2.01 0 1.02 0 0 Z " fill="#55547F" transform="translate(101,44)"/>
<path d="M0 0 C0.66 1.32 1.32 2.64 2 4 C2.66 4 3.32 4 4 4 C3.67 5.32 3.34 6.64 3 8 C2.67 7.67 2.34 7.34 2 7 C1.67 7.66 1.34 8.32 1 9 C0.34 9 -0.32 9 -1 9 C-1.09765625 2.84765625 -1.09765625 2.84765625 -1 1 C-0.67 0.67 -0.34 0.34 0 0 Z " fill="#C83E16" transform="translate(32,17)"/>
<path d="M0 0 C2 1.375 2 1.375 4 3 C4 3.66 4 4.32 4 5 C4.33 5.66 4.66 6.32 5 7 C3.35 7 1.7 7 0 7 C-1.125 2.25 -1.125 2.25 0 0 Z " fill="#E6C25B" transform="translate(44,11)"/>
<path d="M0 0 C2.64 0.99 5.28 1.98 8 3 C7.34 4.98 6.68 6.96 6 9 C3.59927045 6.11912454 1.52708963 3.43595166 0 0 Z " fill="#524A62" transform="translate(60,79)"/>
<path d="M0 0 C0.33 0 0.66 0 1 0 C0.52060632 4.71403788 0.03165952 8.66579301 -2 13 C-2.99 12.67 -3.98 12.34 -5 12 C-4.72285156 11.46890625 -4.44570313 10.9378125 -4.16015625 10.390625 C-3.79792969 9.68421875 -3.43570313 8.9778125 -3.0625 8.25 C-2.52302734 7.20585937 -2.52302734 7.20585937 -1.97265625 6.140625 C-1.04441818 4.09775567 -0.46833422 2.18884624 0 0 Z " fill="#B3492F" transform="translate(67,18)"/>
<path d="M0 0 C0.66 0.66 1.32 1.32 2 2 C3.175625 2.165 4.35125 2.33 5.5625 2.5 C7.2640625 2.7475 7.2640625 2.7475 9 3 C9.33 3.66 9.66 4.32 10 5 C6.7 5 3.4 5 0 5 C0 3.35 0 1.7 0 0 Z " fill="#294565" transform="translate(11,89)"/>
<path d="M0 0 C0.33 0.66 0.66 1.32 1 2 C-2.96 2 -6.92 2 -11 2 C-7.4479604 -1.5520396 -4.63749779 -1.10896686 0 0 Z " fill="#A05C0E" transform="translate(20,46)"/>
<path d="M0 0 C2.3125 -0.25 2.3125 -0.25 5 0 C6.97610386 2.04424538 8 3.1176825 8 6 C4.74456771 5.65120368 3.98126893 4.97866739 1.75 2.4375 C1.1725 1.633125 0.595 0.82875 0 0 Z " fill="#3E3046" transform="translate(55,79)"/>
<path d="M0 0 C0.33 0 0.66 0 1 0 C1.25 5.625 1.25 5.625 -1 9 C-1.99 8.67 -2.98 8.34 -4 8 C-2.66666667 5.33333333 -1.33333333 2.66666667 0 0 Z " fill="#352F4F" transform="translate(37,69)"/>
<path d="M0 0 C3.3 0 6.6 0 10 0 C10.33 0.66 10.66 1.32 11 2 C4.6 3.23076923 4.6 3.23076923 1.5625 2.0625 C1.046875 1.711875 0.53125 1.36125 0 1 C0 0.67 0 0.34 0 0 Z " fill="#C9322E" transform="translate(43,40)"/>
<path d="M0 0 C0.66 0 1.32 0 2 0 C1.6875 1.875 1.6875 1.875 1 4 C-2 6 -2 6 -6 6 C-6 5.34 -6 4.68 -6 4 C-4.7934375 3.566875 -4.7934375 3.566875 -3.5625 3.125 C-0.8673532 2.26737432 -0.8673532 2.26737432 0 0 Z " fill="#5D2215" transform="translate(28,33)"/>
<path d="M0 0 C0.66 0 1.32 0 2 0 C2 1.32 2 2.64 2 4 C2.99 4.33 3.98 4.66 5 5 C4.67 5.99 4.34 6.98 4 8 C2.68 7.34 1.36 6.68 0 6 C0 4.02 0 2.04 0 0 Z " fill="#AB5645" transform="translate(56,35)"/>
<path d="M0 0 C0.33 0 0.66 0 1 0 C1.05395478 1.62463842 1.09277195 3.24978541 1.125 4.875 C1.14820313 5.77992187 1.17140625 6.68484375 1.1953125 7.6171875 C1 10 1 10 -1 12 C-3.125 11.625 -3.125 11.625 -5 11 C-2 9 -2 9 0 9 C0 6.03 0 3.06 0 0 Z " fill="#972236" transform="translate(54,67)"/>
<path d="M0 0 C0.33 0 0.66 0 1 0 C1 3.3 1 6.6 1 10 C2.98 10.495 2.98 10.495 5 11 C3.35 11.66 1.7 12.32 0 13 C0 8.71 0 4.42 0 0 Z " fill="#3B092B" transform="translate(38,57)"/>
<path d="M0 0 C0.99 0 1.98 0 3 0 C3 0.66 3 1.32 3 2 C4.32 2.33 5.64 2.66 7 3 C3.94736336 3.98120464 2.05263664 3.98120464 -1 3 C-0.67 2.01 -0.34 1.02 0 0 Z " fill="#29283F" transform="translate(75,55)"/>
<path d="M0 0 C1.32 0.99 2.64 1.98 4 3 C2.68 4.65 1.36 6.3 0 8 C-0.66 7.67 -1.32 7.34 -2 7 C-1.125 2.25 -1.125 2.25 0 0 Z " fill="#F2F89A" transform="translate(9,36)"/>
<path d="M0 0 C0.99 1.32 1.98 2.64 3 4 C2.01 5.485 2.01 5.485 1 7 C-0.65 6.67 -2.3 6.34 -4 6 C-3.01 5.67 -2.02 5.34 -1 5 C-0.67 3.35 -0.34 1.7 0 0 Z " fill="#F6DF28" transform="translate(20,32)"/>
<path d="M0 0 C2.97 0 5.94 0 9 0 C8.01 1.485 8.01 1.485 7 3 C4.69 2.67 2.38 2.34 0 2 C0 1.34 0 0.68 0 0 Z " fill="#C21C1C" transform="translate(45,33)"/>
<path d="M0 0 C0.33 0.99 0.66 1.98 1 3 C-3.625 6 -3.625 6 -7 6 C-7 5.34 -7 4.68 -7 4 C-6.01 4 -5.02 4 -4 4 C-4 3.34 -4 2.68 -4 2 C-2.68 1.34 -1.36 0.68 0 0 Z " fill="#221A48" transform="translate(22,63)"/>
<path d="M0 0 C0.99 0.33 1.98 0.66 3 1 C3 2.65 3 4.3 3 6 C2.01 6.33 1.02 6.66 0 7 C0 4.69 0 2.38 0 0 Z " fill="#505376" transform="translate(19,58)"/>
<path d="M0 0 C-0.33 1.65 -0.66 3.3 -1 5 C-2.32 5.33 -3.64 5.66 -5 6 C-4.625 3.5625 -4.625 3.5625 -4 1 C-2 0 -2 0 0 0 Z " fill="#F9BE57" transform="translate(48,49)"/>
<path d="M0 0 C0.66 0 1.32 0 2 0 C2 1.65 2 3.3 2 5 C2.99 5.33 3.98 5.66 5 6 C3.02 6 1.04 6 -1 6 C-1.042721 4.33388095 -1.04063832 2.66617115 -1 1 C-0.67 0.67 -0.34 0.34 0 0 Z " fill="#1A0F29" transform="translate(58,85)"/>
<path d="M0 0 C0.99 0 1.98 0 3 0 C2.67 0.99 2.34 1.98 2 3 C-0.64 3.33 -3.28 3.66 -6 4 C-6 3.34 -6 2.68 -6 2 C-4.02 2 -2.04 2 0 2 C0 1.34 0 0.68 0 0 Z " fill="#8F7977" transform="translate(75,59)"/>
<path d="M0 0 C0.66 0 1.32 0 2 0 C2 2.64 2 5.28 2 8 C0.4375 6.8125 0.4375 6.8125 -1 5 C-0.6875 2.3125 -0.6875 2.3125 0 0 Z " fill="#695C86" transform="translate(98,44)"/>
<path d="M0 0 C1.32 0.33 2.64 0.66 4 1 C4 1.66 4 2.32 4 3 C5.65 2.01 7.3 1.02 9 0 C9 0.99 9 1.98 9 3 C7.02 3.33 5.04 3.66 3 4 C2.01 2.68 1.02 1.36 0 0 Z " fill="#4F3C59" transform="translate(39,44)"/>
<path d="M0 0 C-1.125 1.5625 -1.125 1.5625 -3 3 C-6.1875 2.6875 -6.1875 2.6875 -9 2 C-8.67 1.34 -8.34 0.68 -8 0 C-4.71585695 -0.95067299 -3.30306592 -1.10102197 0 0 Z " fill="#30224A" transform="translate(24,72)"/>
<path d="M0 0 C0.33 0 0.66 0 1 0 C1 2.31 1 4.62 1 7 C0.01 7 -0.98 7 -2 7 C-1.125 1.125 -1.125 1.125 0 0 Z " fill="#3F3843" transform="translate(6,54)"/>
<path d="M0 0 C0.99 0.495 0.99 0.495 2 1 C2.625 4.0625 2.625 4.0625 3 7 C2.01 7.33 1.02 7.66 0 8 C0 5.36 0 2.72 0 0 Z " fill="#C64418" transform="translate(40,26)"/>
</svg>
